<svg xmlns="http://www.w3.org/2000/svg" width="215" height="45" viewBox="0 0 215 45">
  <defs>
    <radialGradient id="orishine-logo-a" cx="68.889%" cy="-29.047%" r="90.315%" fx="68.889%" fy="-29.047%" gradientTransform="matrix(.60486 0 0 1 .272 0)">
      <stop offset="0%" stop-color="#FFCB05"/>
      <stop offset="48%" stop-color="#FAA613"/>
      <stop offset="100%" stop-color="#F58220"/>
    </radialGradient>
    <radialGradient id="orishine-logo-b" cx="127.621%" cy="59.761%" r="73.38%" fx="127.621%" fy="59.761%" gradientTransform="matrix(1 0 0 .6629 0 .201)">
      <stop offset="0%" stop-color="#FFCB05"/>
      <stop offset="48%" stop-color="#FAA613"/>
      <stop offset="100%" stop-color="#F58220"/>
    </radialGradient>
    <radialGradient id="orishine-logo-c" cx="41.941%" cy="141.592%" r="102.095%" fx="41.941%" fy="141.592%" gradientTransform="matrix(.53507 0 0 1 .195 0)">
      <stop offset="0%" stop-color="#FFCB05"/>
      <stop offset="48%" stop-color="#FAA613"/>
      <stop offset="100%" stop-color="#F58220"/>
    </radialGradient>
    <radialGradient id="orishine-logo-d" cx="-34.133%" cy="34.362%" r="84.133%" fx="-34.133%" fy="34.362%" gradientTransform="matrix(1 0 0 .48484 0 .177)">
      <stop offset="0%" stop-color="#FFCB05"/>
      <stop offset="48%" stop-color="#FAA613"/>
      <stop offset="100%" stop-color="#F58220"/>
    </radialGradient>
  </defs>
  <g fill="none">
    <circle cx="8.147" cy="19.234" r="5.616" fill="#F58220" transform="rotate(-16.809 8.147 19.234)"/>
    <circle cx="14.609" cy="6.938" r="3.56" fill="#F58220" transform="rotate(-17.13 14.609 6.938)"/>
    <circle cx="4.457" cy="4.42" r="3.02" fill="#F58220" transform="rotate(-17.13 4.457 4.42)"/>
    <g transform="translate(10 8)">
      <path fill="url(#orishine-logo-a)" d="M25.38,26 C24.7631574,24.6330838 23.8985894,23.3921745 22.83,22.34 C21.7141997,21.3979662 20.4075688,20.7088292 19,20.32 C17.2084135,19.8574519 15.3205115,19.9304647 13.57,20.53 C12.3617886,21.0968653 11.2042419,21.7659674 10.11,22.53 L5.34,25.37 L2.51,27 C5.05546898,31.5283648 9.45882577,34.7125901 14.5566618,35.7113734 C19.6544979,36.7101567 24.9338999,35.4230065 29,32.19 L27.35,29.42 C26.7,28.3 26,27.18 25.38,26 Z"/>
      <path fill="url(#orishine-logo-b)" d="M11,19.08 C13.00209,17.9490338 14.4491767,16.0424969 15,13.81 C15.5613364,11.7667467 15.3513313,9.58838825 14.41,7.69 L13.41,6.07 L11,1.95 C2.13297123,5.69747882 -2.12383061,15.8356805 1.41,24.79 L6.78,21.6 L11,19.08 Z"/>
      <path fill="url(#orishine-logo-c)" d="M16.23,5.85 C17.5526733,7.91393665 19.6248861,9.38384538 22.01,9.95 C23.5410974,10.3799476 25.1690835,10.3134278 26.66,9.76 C27.4072422,9.39449584 28.1259359,8.97330791 28.81,8.5 L31.55,6.87 C27.1430643,1.59157125 20.0705494,-0.644935946 13.43,1.14 L13.52,1.28 L16.23,5.85 Z"/>
      <path fill="url(#orishine-logo-d)" d="M33,8.89 L29.12,11.2 C27.2984683,12.497693 26.0172813,14.4194735 25.52,16.6 C25.2779159,17.5803843 25.1935255,18.5930692 25.27,19.6 C25.44,22.21 27.27,24.51 28.57,26.7 C29.3233333,27.9733333 30.0833333,29.2433333 30.85,30.51 C36.4325605,24.6457734 37.3183122,15.7388185 33,8.89 L33,8.89 Z"/>
    </g>
    <g fill="#F58220" transform="translate(50 13)">
      <path d="M14.8807143,28.81 L8.87309524,17.64 L6.59059524,17.64 L6.59059524,28.81 L0,28.81 L0,0.67 L10.6022619,0.67 C15.9478571,0.67 21.2440476,2.74 21.2440476,9.18 C21.2440476,12.96 19.0405952,15.66 15.4735714,16.77 L22.7360714,28.77 L14.8807143,28.81 Z M10.1279762,6.15 L6.56095238,6.15 L6.56095238,12.71 L9.74261905,12.71 C11.9065476,12.71 14.6139286,12.15 14.6139286,9.29 C14.6040476,6.67 12.1338095,6.15 10.1279762,6.15 Z"/>
      <polygon points="25.246 28.81 25.246 .67 32.014 .67 32.014 28.81"/>
      <polygon points="35.502 16.8 35.502 11.63 45.472 11.63 45.472 16.8"/>
      <path d="M63.6333333,7.98 C62.4012105,6.49935984 60.6046872,5.61936649 58.6928571,5.56 C56.9636905,5.56 54.8096429,6.16 54.8096429,8.38 C54.8096429,10.25 56.4597619,10.84 59.0880952,11.68 C62.862619,12.91 67.7240476,14.54 67.7240476,20.15 C67.7240476,26.63 62.5760714,29.53 57.0822619,29.53 C53.2226509,29.6178112 49.4843429,28.1626774 46.677619,25.48 L51.0746429,20.95 C52.5663034,22.7668333 54.7500055,23.8572996 57.0822619,23.95 C59.127619,23.95 60.9358333,23.16 60.9358333,20.89 C60.9358333,18.62 58.8114286,18.07 55.1653571,16.89 C51.5192857,15.71 48.0609524,13.89 48.0609524,8.82 C48.0609524,2.58 53.6338095,-1.77635684e-15 58.8213095,-1.77635684e-15 C62.1707419,0.0050208884 65.4057861,1.23366635 67.9315476,3.46 L63.6333333,7.98 Z"/>
      <polygon points="88.948 28.81 88.948 17.03 78.079 17.03 78.079 28.79 71.36 28.79 71.36 .67 78.079 .67 78.079 11.32 88.948 11.32 88.948 .67 95.667 .67 95.667 28.81"/>
      <polygon points="100.618 28.81 100.618 .67 107.376 .67 107.376 28.81"/>
      <polygon points="129.994 28.81 118.799 10.41 118.68 10.41 118.838 28.81 112.317 28.81 112.317 .67 119.955 .67 131.13 19.03 131.249 19.03 131.091 .67 137.612 .67 137.612 28.81"/>
      <polygon points="142.562 .67 164.972 .67 164.972 6.29 151.426 22.76 164.972 22.76 164.972 28.76 142.562 28.76 142.562 22.93 155.971 6.63 142.562 6.63"/>
    </g>
  </g>
</svg>
