<?xml version="1.0" encoding="UTF-8"?>
<svg width="500px" height="157px" viewBox="0 0 500 157" version="1.1" xmlns="http://www.w3.org/2000/svg" xmlns:xlink="http://www.w3.org/1999/xlink">
    <!-- Generator: sketchtool 57.1 (101010) - https://sketch.com -->
    <title>99C155A2-6358-4B3F-A2D1-E97E38576A49</title>
    <desc>Created with sketchtool.</desc>
    <defs>
        <filter x="-2.5%" y="-8.2%" width="104.9%" height="116.4%" filterUnits="objectBoundingBox" id="filter-1">
            <feOffset dx="0" dy="2" in="SourceAlpha" result="shadowOffsetOuter1"></feOffset>
            <feGaussianBlur stdDeviation="2" in="shadowOffsetOuter1" result="shadowBlurOuter1"></feGaussianBlur>
            <feColorMatrix values="0 0 0 0 0   0 0 0 0 0   0 0 0 0 0  0 0 0 0.5 0" type="matrix" in="shadowBlurOuter1" result="shadowMatrixOuter1"></feColorMatrix>
            <feMerge>
                <feMergeNode in="shadowMatrixOuter1"></feMergeNode>
                <feMergeNode in="SourceGraphic"></feMergeNode>
            </feMerge>
        </filter>
        <linearGradient x1="100%" y1="50%" x2="0%" y2="50%" id="linearGradient-2">
            <stop stop-color="#FFCA65" offset="0%"></stop>
            <stop stop-color="#F58220" offset="100%"></stop>
        </linearGradient>
        <linearGradient x1="100%" y1="50%" x2="13.123843%" y2="50%" id="linearGradient-3">
            <stop stop-color="#FBB843" offset="0%"></stop>
            <stop stop-color="#F58220" offset="100%"></stop>
        </linearGradient>
    </defs>
    <g id="Symbols" stroke="none" stroke-width="1" fill="none" fill-rule="evenodd">
        <g id="combined/text-cta" fill-rule="nonzero">
            <g id="text" filter="url(#filter-1)" transform="translate(6.000000, 5.000000)">
                <path d="M213.160156,146 C206.550748,146 200.714869,144.134154 195.652344,140.402406 C190.589818,136.670659 187.039073,131.389963 185,124.56016 L198.394531,119.279412 C199.449224,123.292801 201.242175,126.496423 203.773438,128.890374 C206.3047,131.284326 209.468731,132.481283 213.265625,132.481283 C216.429703,132.481283 219.136708,131.689179 221.386719,130.104947 C223.63673,128.520714 224.761719,126.320424 224.761719,123.504011 C224.761719,120.687597 223.689464,118.381693 221.544922,116.58623 C219.40038,114.790766 215.585965,112.872114 210.101563,110.830214 L205.460938,109.140374 C200.609351,107.450526 196.460955,104.862985 193.015625,101.377674 C189.570295,97.8923623 187.847656,93.5093847 187.847656,88.2286096 C187.847656,84.2856309 188.867177,80.6947577 190.90625,77.4558824 C192.945323,74.217007 195.828106,71.6646706 199.554688,69.7987968 C203.281269,67.9329229 207.499976,67 212.210938,67 C219.031284,67 224.410137,68.6018111 228.347656,71.8054813 C232.285176,75.0091515 234.99218,78.7584455 236.46875,83.0534759 L223.917969,88.3342246 C223.144527,86.0106836 221.791025,84.0568261 219.857422,82.4725936 C217.923818,80.8883611 215.445328,80.0962567 212.421875,80.0962567 C209.32811,80.0962567 206.779307,80.8179518 204.775391,82.2613636 C202.771474,83.7047755 201.769531,85.5882237 201.769531,87.9117647 C201.769531,90.1648954 202.718741,92.0835482 204.617187,93.6677807 C206.515634,95.2520133 209.644509,96.7834151 214.003906,98.2620321 L218.75,99.8462567 C225.289095,102.099387 230.298811,105.074179 233.779297,108.770722 C237.259783,112.467264 239,117.307902 239,123.292781 C239,128.221504 237.734388,132.393254 235.203125,135.808155 C232.671862,139.223056 229.419942,141.775393 225.447266,143.465241 C221.47459,145.155089 217.378927,146 213.160156,146 Z M253,69 L267.422067,69 L267.422067,99.3575419 L299.577933,99.3575419 L299.577933,69 L314,69 L314,145 L299.577933,145 L299.577933,112.944134 L267.422067,112.944134 L267.422067,145 L253,145 L253,69 Z M331,69 L345,69 L345,145 L331,145 L331,69 Z M362,69 L378.540587,69 L408.882556,119.949721 L409.725389,119.949721 L408.882556,105.301676 L408.882556,69 L423,69 L423,145 L408.039724,145 L376.01209,91.1843575 L375.169257,91.1843575 L376.01209,105.832402 L376.01209,145 L362,145 L362,69 Z M441,69 L489,69 L489,82.5865922 L455.273128,82.5865922 L455.273128,100.206704 L485.61674,100.206704 L485.61674,113.793296 L455.273128,113.793296 L455.273128,131.413408 L489,131.413408 L489,145 L441,145 L441,69 Z" id="SHINE" fill="url(#linearGradient-2)"></path>
                <path d="M107.750378,96 C105.023184,96 102.532033,95.3603005 100.276853,94.0808824 C98.021673,92.8014642 96.2450897,91.0568292 94.9470499,88.8469251 C93.6490102,86.637021 93,84.1880705 93,81.5 C93,78.8119295 93.6490102,76.362979 94.9470499,74.1530749 C96.2450897,71.9431708 98.021673,70.1985358 100.276853,68.9191176 C102.532033,67.6396995 105.023184,67 107.750378,67 C111.998508,67 115.512341,68.512017 118.291982,71.5360963 L114.555219,75.1029412 C112.745831,73.0093478 110.490684,71.9625668 107.789713,71.9625668 C106.03277,71.9625668 104.433189,72.3567251 102.990923,73.1450535 C101.548656,73.9333818 100.414528,75.0512405 99.5885023,76.4986631 C98.762477,77.9460857 98.3494705,79.6131813 98.3494705,81.5 C98.3494705,83.3868187 98.762477,85.0539143 99.5885023,86.5013369 C100.414528,87.9487595 101.548656,89.0666182 102.990923,89.8549465 C104.433189,90.6432749 106.03277,91.0374332 107.789713,91.0374332 C110.752914,91.0374332 113.230953,89.8226503 115.223903,87.3930481 L119,90.921123 C117.61018,92.5753202 115.964709,93.8353344 114.06354,94.7012032 C112.162371,95.5670721 110.058004,96 107.750378,96 Z M131.456647,68 L137.504335,68 L148,96 L142.186416,96 L139.845376,89.3128492 L129.154624,89.3128492 L126.813584,96 L121,96 L131.456647,68 Z M138,84 L135.641711,77.2330827 L134.668449,74 L134.368984,74 L133.395722,77.2330827 L131,84 L138,84 Z M152,68 L158.236615,68 L169.677029,86.7709497 L169.994819,86.7709497 L169.677029,81.3743017 L169.677029,68 L175,68 L175,96 L169.35924,96 L157.283247,76.1731844 L156.965458,76.1731844 L157.283247,81.5698324 L157.283247,96 L152,96 L152,68 Z" id="CAN" fill="#FFFFFF"></path>
                <path d="M0,0 L5.42314335,0 L15.3713299,16.0893855 L15.6476684,16.0893855 L15.3713299,11.4636872 L15.3713299,0 L20,0 L20,24 L15.0949914,24 L4.59412781,7.00558659 L4.31778929,7.00558659 L4.59412781,11.6312849 L4.59412781,24 L0,24 L0,0 Z M35.5,25 C33.1604161,25 31.0381111,24.4485349 29.1330214,23.3455882 C27.2279317,22.2426415 25.7295064,20.7330755 24.6377005,18.8168449 C23.5458947,16.9006143 23,14.7950204 23,12.5 C23,10.2049796 23.5458947,8.0993857 24.6377005,6.18315508 C25.7295064,4.26692447 27.2279317,2.75735846 29.1330214,1.65441176 C31.0381111,0.551465074 33.1604161,0 35.5,0 C37.8395839,0 39.9618889,0.551465074 41.8669786,1.65441176 C43.7720683,2.75735846 45.2704936,4.26692447 46.3622995,6.18315508 C47.4541053,8.0993857 48,10.2049796 48,12.5 C48,14.7950204 47.4541053,16.9006143 46.3622995,18.8168449 C45.2704936,20.7330755 43.7720683,22.2426415 41.8669786,23.3455882 C39.9618889,24.4485349 37.8395839,25 35.5,25 Z M35.9832285,20 C37.4591269,20 38.8120134,19.66396 40.0419287,18.9918699 C41.271844,18.3197798 42.2389902,17.3766998 42.9433962,16.1626016 C43.6478023,14.9485034 44,13.5609834 44,12 C44,10.4390166 43.6478023,9.05149659 42.9433962,7.83739837 C42.2389902,6.62330016 41.271844,5.68022016 40.0419287,5.00813008 C38.8120134,4.33604 37.4591269,4 35.9832285,4 C34.5073301,4 33.160034,4.33604 31.9412998,5.00813008 C30.7225655,5.68022016 29.7610098,6.62330016 29.0566038,7.83739837 C28.3521977,9.05149659 28,10.4390166 28,12 C28,13.5609834 28.3521977,14.9485034 29.0566038,16.1626016 C29.7610098,17.3766998 30.7225655,18.3197798 31.9412998,18.9918699 C33.160034,19.66396 34.5073301,20 35.9832285,20 Z M50,0 L55.0579557,0 L58.3624868,13.4748603 L58.7671233,15.9888268 L59.0368809,15.9888268 L59.5763962,13.4748603 L63.825079,0 L68.3097998,0 L72.4573235,13.4748603 L72.9968388,15.9217877 L73.2665964,15.9217877 L73.6712329,13.4748603 L76.9420443,0 L82,0 L75.7618546,24 L70.8724974,24 L66.7586934,9.51955307 L66.2191781,6.93854749 L65.9494204,6.93854749 L65.4099052,9.51955307 L61.0937829,24 L56.4067439,24 L50,0 Z" id="NOW" fill="#FFFFFF"></path>
                <path d="M92,1 L127,1 L127,11.0111732 L102.407489,11.0111732 L102.407489,23.9944134 L124.53304,23.9944134 L124.53304,34.0055866 L102.407489,34.0055866 L102.407489,46.9888268 L127,46.9888268 L127,57 L92,57 L92,1 Z M133,1 L144.35061,1 L155.856707,34.7877095 L157.878049,41.9050279 L158.5,41.9050279 L160.676829,34.7877095 L172.64939,1 L184,1 L163.708841,57 L152.669207,57 L133,1 Z M192,1 L227,1 L227,11.0111732 L202.407489,11.0111732 L202.407489,23.9944134 L224.53304,23.9944134 L224.53304,34.0055866 L202.407489,34.0055866 L202.407489,46.9888268 L227,46.9888268 L227,57 L192,57 L192,1 Z M238,1 L258.375465,1 C262.018606,1 265.25835,1.75604458 268.094796,3.26815642 C270.931241,4.78026827 273.130104,6.87894374 274.69145,9.56424581 C276.252796,12.2495479 277.033457,15.2867615 277.033457,18.6759777 C277.033457,22.273761 275.901498,25.4673976 273.637546,28.2569832 C271.373595,31.0465689 268.524181,33.0670328 265.089219,34.3184358 L265.011152,34.8659218 L280,56.3743017 L280,57 L267.899628,57 L253.457249,35.9608939 L248.539033,35.9608939 L248.539033,57 L238,57 L238,1 Z M257.279476,27 C259.556052,27 261.411929,26.2929364 262.847162,24.8787879 C264.282394,23.4646394 265,21.671728 265,19.5 C265,17.4292826 264.319512,15.6616235 262.958515,14.1969697 C261.597519,12.7323159 259.754015,12 257.427948,12 L248,12 L248,27 L257.279476,27 Z M298.871126,30.9553073 L280,1 L292.606852,1 L303.804241,19.5363128 L304.430669,19.5363128 L315.236542,1 L328,1 L309.442088,30.9553073 L309.442088,57 L298.871126,57 L298.871126,30.9553073 Z M358.933434,58 C353.583937,58 348.69745,56.720601 344.273828,54.1617647 C339.850205,51.6029284 336.365368,48.1136585 333.819213,43.6938503 C331.273058,39.2740421 330,34.376141 330,29 C330,23.623859 331.273058,18.7259579 333.819213,14.3061497 C336.365368,9.88634154 339.850205,6.39707162 344.273828,3.83823529 C348.69745,1.27939897 353.583937,0 358.933434,0 C367.266305,0 374.158823,3.02403393 379.611195,9.07219251 L372.281392,16.2058824 C368.732206,12.0186956 364.30865,9.92513369 359.01059,9.92513369 C355.564279,9.92513369 352.42664,10.7134502 349.597579,12.290107 C346.768518,13.8667637 344.543881,16.1024811 342.923601,18.9973262 C341.30332,21.8921713 340.493192,25.2263626 340.493192,29 C340.493192,32.7736374 341.30332,36.1078287 342.923601,39.0026738 C344.543881,41.8975189 346.768518,44.1332363 349.597579,45.709893 C352.42664,47.2865498 355.564279,48.0748663 359.01059,48.0748663 C364.823025,48.0748663 369.683793,45.6453006 373.593041,40.7860963 L381,47.842246 C378.273814,51.1506404 375.046161,53.6706687 371.316944,55.4024064 C367.587727,57.1341441 363.459932,58 358.933434,58 Z M405.913295,1 L418.008671,1 L439,57 L427.372832,57 L422.690751,43.6256983 L401.309249,43.6256983 L396.627168,57 L385,57 L405.913295,1 Z M419,34 L414.283422,20.4661654 L412.336898,14 L411.737968,14 L409.791444,20.4661654 L405,34 L419,34 Z M447,1 L467.375465,1 C471.018606,1 474.25835,1.75604458 477.094796,3.26815642 C479.931241,4.78026827 482.130104,6.87894374 483.69145,9.56424581 C485.252796,12.2495479 486.033457,15.2867615 486.033457,18.6759777 C486.033457,22.273761 484.901498,25.4673976 482.637546,28.2569832 C480.373595,31.0465689 477.524181,33.0670328 474.089219,34.3184358 L474.011152,34.8659218 L489,56.3743017 L489,57 L476.899628,57 L462.457249,35.9608939 L457.539033,35.9608939 L457.539033,57 L447,57 L447,1 Z M467.279476,27 C469.556052,27 471.411929,26.2929364 472.847162,24.8787879 C474.282394,23.4646394 475,21.671728 475,19.5 C475,17.4292826 474.319512,15.6616235 472.958515,14.1969697 C471.597519,12.7323159 469.754015,12 467.427948,12 L458,12 L458,27 L467.279476,27 Z" id="EVERYCAR" fill="url(#linearGradient-3)"></path>
            </g>
        </g>
    </g>
</svg>