<svg xmlns="http://www.w3.org/2000/svg" width="180" height="180" viewBox="0 0 180 180">
  <g fill="none">
    <path fill="#FFCA65" d="M127.506535 110.131579C127.753573 108.583018 127.894737 106.999263 127.894737 105.380313 127.894737 86.0233028 96.8033287 44.0361882 93.2742245 39.3201167 91.8625828 37.4196102 88.686389 37.4196102 87.2394563 39.3201167 85.8983967 41.1150394 80.6400314 48.1891467 74.6052632 57.3749279L127.506535 110.131579zM61.453125 78.890625C56.3554688 88.6640625 52.5234375 98.2265625 52.5234375 105.011719 52.5234375 125.683594 69.3632813 142.523438 90.0351563 142.523438 99.7734375 142.523438 108.527344 138.726563 115.171875 132.609375L61.453125 78.890625zM90 127.511719C77.5898438 127.511719 67.5 117.421875 67.5 105.011719 67.5 102.9375 69.1875 101.25 71.2617188 101.25 73.3359375 101.25 75.0234375 102.9375 75.0234375 105.011719 75.0234375 113.273438 81.7382813 120.023438 90.0351563 120.023438 92.109375 120.023438 93.796875 121.710938 93.796875 123.785156 93.796875 125.859375 92.0742188 127.511719 90 127.511719z"/>
    <path fill="#F58220" d="M90,0 C40.359375,0 0,40.359375 0,90 C0,139.640625 40.359375,180 90,180 C139.640625,180 180,139.640625 180,90 C180,40.359375 139.640625,0 90,0 Z M90,164.988281 C48.65625,164.988281 15.0117188,131.34375 15.0117188,90 C15.0117188,72 21.375,55.5117187 31.9570313,42.5742187 L63.84375,74.4609375 C63.84375,74.4609375 63.84375,74.4609375 63.84375,74.4960937 L118.476563,129.128906 C118.476563,129.128906 118.476563,129.128906 118.476563,129.09375 L137.425781,148.042969 C124.488281,158.625 107.964844,164.988281 90,164.988281 Z M148.042969,137.425781 L141.257812,130.640625 L141.222656,130.675781 L51.7851562,41.203125 L51.8203125,41.1679688 L42.609375,31.9570313 C55.546875,21.375 72.0703125,15.0117188 90.0351562,15.0117188 C131.378906,15.0117188 165.023438,48.65625 165.023438,90 C164.988281,107.964844 158.625,124.488281 148.042969,137.425781 Z"/>
  </g>
</svg>
