<svg xmlns="http://www.w3.org/2000/svg" width="182" height="180" viewBox="0 0 182 180">
  <g fill="none">
    <path fill="#FFCA65" d="M161.835683 28.2053571C161.835683 29.937265 163.234547 31.3392857 164.962555 31.3392857 166.690563 31.3392857 168.089427 29.937265 168.089427 28.2053571 168.089427 23.0096335 172.286019 18.8035714 177.470044 18.8035714 179.198052 18.8035714 180.596916 17.4015508 180.596916 15.6696429 180.596916 13.937735 179.198052 12.5357143 177.470044 12.5357143 172.286019 12.5357143 168.089427 8.32965226 168.089427 3.13392857 168.089427 1.40202068 166.690563 0 164.962555 0 163.234547 0 161.835683 1.40202068 161.835683 3.13392857 161.835683 8.32965226 157.639091 12.5357143 152.455066 12.5357143 150.727058 12.5357143 149.328194 13.937735 149.328194 15.6696429 149.328194 17.4015508 150.727058 18.8035714 152.455066 18.8035714 157.639091 18.8035714 161.835683 23.0096335 161.835683 28.2053571zM164.962555 12.4120066C165.867702 13.6490836 166.978565 14.7212171 168.171713 15.628407 166.937422 16.5355968 165.867702 17.6489662 164.962555 18.8448073 164.057408 17.6077303 162.946545 16.5355968 161.753397 15.628407 162.946545 14.762453 164.057408 13.6490836 164.962555 12.4120066zM52.1546256 33.9910714C52.1546256 35.2010646 53.1121145 36.1607143 54.3193833 36.1607143 55.526652 36.1607143 56.484141 35.2010646 56.484141 33.9910714 56.484141 30.4028159 59.3982379 27.4821429 62.9784141 27.4821429 64.1856828 27.4821429 65.1431718 26.5224931 65.1431718 25.3125 65.1431718 24.1025069 64.1856828 23.1428571 62.9784141 23.1428571 59.3982379 23.1428571 56.484141 20.2221841 56.484141 16.6339286 56.484141 15.4239354 55.526652 14.4642857 54.3193833 14.4642857 53.1121145 14.4642857 52.1546256 15.4239354 52.1546256 16.6339286 52.1546256 20.2221841 49.2405286 23.1428571 45.6603524 23.1428571 44.4530837 23.1428571 43.4955947 24.1025069 43.4955947 25.3125 43.4955947 26.5224931 44.4530837 27.4821429 45.6603524 27.4821429 49.2405286 27.440419 52.1546256 30.361092 52.1546256 33.9910714zM54.3610132 23.0176854C54.9854626 23.8521635 55.7348018 24.6449176 56.6090308 25.2707761 55.7764317 25.8966346 54.9854626 26.6476648 54.3610132 27.5238668 53.7365639 26.6893887 52.9872247 25.8966346 52.1129956 25.2707761 52.9455947 24.6449176 53.6949339 23.8938874 54.3610132 23.0176854z"/>
    <path fill="#F58220" d="M104.429515,94.0178571 C99.574809,94.0178571 95.6101322,97.991481 95.6101322,102.857143 C95.6101322,107.722805 99.574809,111.696429 104.429515,111.696429 C109.284222,111.696429 113.248899,107.722805 113.248899,102.857143 C113.248899,97.991481 109.284222,94.0178571 104.429515,94.0178571 Z"/>
    <path fill="#FFCA65" d="M121.149493 93.2142857C120.729983 93.2142857 120.352423 93.0047656 120.100717 92.6695333 117.499752 88.8981705 113.682207 86.1325044 109.319298 84.8334794 108.773934 84.6658633 108.438326 84.2049189 108.438326 83.6182625L108.438326 67.1499781C108.438326 66.7728418 108.60613 66.4376096 108.899788 66.1861854 109.109543 65.9766652 109.4032 65.8928571 109.696857 65.8928571 109.78076 65.8928571 109.822711 65.8928571 109.906613 65.8928571 121.862661 67.8623466 132.350423 75.4469763 137.971863 86.2582165 138.139668 86.5934487 138.139668 86.970585 138.013814 87.3058173 137.887961 87.6410495 137.594304 87.8924737 137.258696 88.0181858L121.569004 93.1304777C121.4012 93.2142857 121.275347 93.2142857 121.149493 93.2142857zM130.25385 130.982143C129.885828 130.940004 129.558697 130.77145 129.35424 130.476481L119.908344 117.076437C119.581213 116.612914 119.581213 116.022975 119.908344 115.559451 122.525389 112.019817 123.956585 107.805967 123.956585 103.339286 123.956585 103.255009 123.956585 103.128593 123.956585 103.044316L123.956585 102.833624C123.956585 102.285823 124.283716 101.780161 124.815303 101.611607L140.10866 96.4707099C140.231334 96.4285714 140.354008 96.4285714 140.476682 96.4285714 140.72203 96.4285714 140.926486 96.5128484 141.130943 96.5971254 141.458074 96.8078179 141.66253 97.1027875 141.703422 97.482034 141.989661 99.4204051 142.112335 101.358776 142.112335 103.339286 142.112335 113.62108 138.227659 123.312936 131.235241 130.602896 130.989894 130.855727 130.703654 130.982143 130.376524 130.982143 130.294741 130.982143 130.294741 130.982143 130.25385 130.982143zM86.8658243 93.2142857C86.7399711 93.2142857 86.614118 93.2142857 86.4882649 93.1723173L70.7985731 88.0521725C70.4629647 87.9262673 70.1693074 87.6744569 70.0434542 87.3387097 69.9176011 87.0029625 69.9176011 86.6252469 70.0854053 86.2894997 75.7068457 75.4616524 86.1946075 67.865372 98.1506561 65.8928571 98.2345582 65.8928571 98.2765092 65.8928571 98.3604113 65.8928571 98.6540686 65.8928571 98.947726 65.9767939 99.1574812 66.1866359 99.4511385 66.4384463 99.6189427 66.7741935 99.6189427 67.1519092L99.6189427 83.6454905C99.6189427 84.1910797 99.2413833 84.6947005 98.7379707 84.8625741 94.3750618 86.1635945 90.5575165 88.9335089 87.9565515 92.7106649 87.6628942 93.0464121 87.2853348 93.2142857 86.8658243 93.2142857zM104.028634 141.428571C97.942191 141.428571 92.1076004 140.026993 86.6927646 137.266309 86.3569608 137.096421 86.105108 136.799117 86.0211571 136.416868 85.9372061 136.034619 86.0211571 135.652371 86.2310344 135.355066L95.9273684 121.84895C96.1792212 121.509174 96.5570004 121.339286 96.9347797 121.339286 97.0607061 121.339286 97.228608 121.381758 97.3545344 121.42423 99.4952834 122.188727 101.761959 122.570976 104.028634 122.570976 106.29531 122.570976 108.561985 122.188727 110.702734 121.42423 110.828661 121.381758 110.996563 121.339286 111.122489 121.339286 111.500268 121.339286 111.920023 121.509174 112.1299 121.84895L121.826234 135.355066C122.036112 135.652371 122.120063 136.034619 122.036112 136.416868 121.952161 136.799117 121.700308 137.096421 121.364504 137.266309 115.949668 140.026993 110.115078 141.428571 104.028634 141.428571zM76.9003987 130.982143C76.5726711 130.982143 76.2449436 130.855727 76.0401138 130.602896 68.9939709 123.270797 65.1431718 113.578942 65.1431718 103.339286 65.1431718 101.400915 65.3070356 99.4204051 65.5528313 97.482034 65.5937972 97.1027875 65.798627 96.8078179 66.1263545 96.5971254 66.3311843 96.4707099 66.536014 96.4285714 66.7818097 96.4285714 66.9047075 96.4285714 67.0276054 96.4285714 67.1505032 96.4707099L82.4717676 101.611607C83.0043249 101.780161 83.3320525 102.285823 83.3320525 102.833624L83.3320525 103.044316C83.3320525 103.128593 83.3320525 103.255009 83.3320525 103.339286 83.3320525 107.805967 84.7248947 112.019817 87.3467153 115.559451 87.6744429 116.022975 87.6744429 116.612914 87.3467153 117.076437L77.8835815 130.476481C77.6787517 130.77145 77.3510241 130.982143 76.9823306 130.982143 76.9823306 130.982143 76.9413647 130.982143 76.9003987 130.982143z"/>
    <path fill="#F58220" d="M104.429515 24.9107143C61.9112559 24.9107143 27.4603524 59.6191988 27.4603524 102.455357 27.4603524 145.291515 61.9112559 180 104.429515 180 146.947775 180 181.398678 145.291515 181.398678 102.455357 181.398678 59.6191988 146.906615 24.9107143 104.429515 24.9107143zM133.323822 141.766759C133.200342 141.849694 133.118022 141.974098 132.994542 142.057033 132.871062 142.139968 132.706422 142.264372 132.582942 142.347307 124.639066 148.069853 114.92531 151.428739 104.429515 151.428739 93.9337205 151.428739 84.2199651 148.069853 76.276089 142.347307 76.152609 142.264372 75.9879691 142.181436 75.8644892 142.057033 75.7410092 141.974098 75.6586893 141.891162 75.5352093 141.766759 63.598815 132.851198 55.8607388 118.544834 55.8607388 102.455357 55.8607388 75.4598692 77.6343683 53.5234435 104.429515 53.5234435 131.224663 53.5234435 152.998292 75.4598692 152.998292 102.455357 152.998292 118.544834 145.260216 132.851198 133.323822 141.766759zM65.9449339 176.785714C65.9449339 176.785714 22.6329469 166.525099 9.84559833 169.808496-2.94175022 173.091893-1.29176976 158.727031 4.89565696 156.264483 11.0830837 153.801935 13.5580544 148.87684 65.9449339 176.785714z"/>
    <path fill="#F58220" d="M37.8832599 155.892857C37.8832599 155.892857 21.5006735 147.340235 8.62569373 150.244899-4.24928602 153.149563 3.5087146 140.845084 12.1745664 141.450222 20.8404181 142.055361 33.5916 150.607982 37.8832599 155.892857zM26.6585903 133.392857C26.6585903 133.392857 24.1720422 128.442112 14.3862725 127.485245 4.60050268 126.569982 8.29021916 118.790239 12.9424704 116.834903 17.5947216 114.879567 24.6533096 122.160074 26.6585903 133.392857z"/>
  </g>
</svg>
