<svg xmlns="http://www.w3.org/2000/svg" width="231" height="180" viewBox="0 0 231 180">
  <defs>
    <radialGradient id="benefit-perfect-shine-a" cx="68.889%" cy="-29.047%" r="90.138%" fx="68.889%" fy="-29.047%" gradientTransform="matrix(.60604 0 0 1 .271 0)">
      <stop offset="0%" stop-color="#FFCB05"/>
      <stop offset="48%" stop-color="#FAA613"/>
      <stop offset="100%" stop-color="#F58220"/>
    </radialGradient>
    <radialGradient id="benefit-perfect-shine-b" cx="127.621%" cy="59.761%" r="73.38%" fx="127.621%" fy="59.761%" gradientTransform="matrix(1 0 0 .66054 0 .203)">
      <stop offset="0%" stop-color="#FFCB05"/>
      <stop offset="48%" stop-color="#FAA613"/>
      <stop offset="100%" stop-color="#F58220"/>
    </radialGradient>
    <radialGradient id="benefit-perfect-shine-c" cx="41.941%" cy="141.592%" r="100.984%" fx="41.941%" fy="141.592%" gradientTransform="matrix(.54095 0 0 1 .193 0)">
      <stop offset="0%" stop-color="#FFCB05"/>
      <stop offset="48%" stop-color="#FAA613"/>
      <stop offset="100%" stop-color="#F58220"/>
    </radialGradient>
    <radialGradient id="benefit-perfect-shine-d" cx="-34.133%" cy="34.362%" r="84.133%" fx="-34.133%" fy="34.362%" gradientTransform="matrix(1 0 0 .48346 0 .177)">
      <stop offset="0%" stop-color="#FFCB05"/>
      <stop offset="48%" stop-color="#FAA613"/>
      <stop offset="100%" stop-color="#F58220"/>
    </radialGradient>
  </defs>
  <g fill="none">
    <path fill="#FFCA65" d="M56.0236686,101.289941 C56.0236686,100.054739 55.0221836,99.0532544 53.7869822,99.0532544 C52.5517811,99.0532544 51.5502959,100.054739 51.5502959,101.289941 C51.5502959,104.996637 48.5458409,108 44.8402367,108 C43.6050356,108 42.6035503,109.001485 42.6035503,110.236686 C42.6035503,111.471888 43.6050356,112.473373 44.8402367,112.473373 C48.5458409,112.473373 51.5502959,115.477828 51.5502959,119.183432 C51.5502959,120.418633 52.5517811,121.420118 53.7869822,121.420118 C55.0221836,121.420118 56.0236686,120.418633 56.0236686,119.183432 C56.0236686,115.477828 59.0281239,112.473373 62.7337278,112.473373 C63.9689292,112.473373 64.9704142,111.471888 64.9704142,110.236686 C64.9704142,109.001485 63.9689292,108 62.7337278,108 C59.0281239,108 56.0236686,104.996637 56.0236686,101.289941 Z M53.7864304,112.566568 C53.1287894,111.679414 52.3431509,110.894879 51.4571006,110.236135 C52.3431509,109.578493 53.1287894,108.792855 53.7864304,107.906805 C54.4451753,108.792855 55.2297105,109.578493 56.1168639,110.236135 C55.2297105,110.894879 54.4451753,111.679414 53.7864304,112.566568 L53.7864304,112.566568 Z"/>
    <path fill="#F58220" d="M207.905325,75.8343195 C207.905325,77.4812543 209.240639,78.816568 210.887574,78.816568 C212.534509,78.816568 213.869822,77.4812543 213.869822,75.8343195 C213.869822,70.893514 217.875763,66.887574 222.816568,66.887574 C224.463503,66.887574 225.798817,65.5522603 225.798817,63.9053254 C225.798817,62.2583903 224.463503,60.9230769 222.816568,60.9230769 C217.875763,60.9230769 213.869822,56.9185926 213.869822,51.9763314 C213.869822,50.3293962 212.534509,48.9940828 210.887574,48.9940828 C209.240639,48.9940828 207.905325,50.3293962 207.905325,51.9763314 C207.905325,56.9185926 203.899385,60.9230769 198.95858,60.9230769 C197.311645,60.9230769 195.976331,62.2583903 195.976331,63.9053254 C195.976331,65.5522603 197.311645,66.887574 198.95858,66.887574 C203.899385,66.887574 207.905325,70.893514 207.905325,75.8343195 Z M210.886845,60.8284024 C211.756807,61.9985509 212.792891,63.0360925 213.964497,63.9045969 C212.792891,64.774558 211.756807,65.8106421 210.886845,66.9822485 C210.018342,65.8106421 208.9808,64.774558 207.810651,63.9045969 C208.9808,63.0360925 210.018342,61.9985509 210.886845,60.8284024 Z"/>
    <path fill="#FFCA65" d="M207.053254,15.3372781 C200.700791,15.3372781 195.550296,10.1886555 195.550296,3.83431953 C195.550296,1.71683143 193.833464,0 191.715976,0 C189.598489,0 187.881657,1.71683143 187.881657,3.83431953 C187.881657,10.1886555 182.731163,15.3372781 176.378698,15.3372781 C174.261211,15.3372781 172.544379,17.0541095 172.544379,19.1715976 C172.544379,21.2890853 174.261211,23.0059172 176.378698,23.0059172 C182.731163,23.0059172 187.881657,28.1564114 187.881657,34.5088757 C187.881657,36.6263634 189.598489,38.3431953 191.715976,38.3431953 C193.833464,38.3431953 195.550296,36.6263634 195.550296,34.5088757 C195.550296,28.1564114 200.700791,23.0059172 207.053254,23.0059172 C209.170743,23.0059172 210.887574,21.2890853 210.887574,19.1715976 C210.887574,17.0541095 209.170743,15.3372781 207.053254,15.3372781 Z M191.715976,23.1257396 C190.60013,21.6204692 189.267105,20.2893166 187.763707,19.1715976 C189.267105,18.0557503 190.60013,16.7227251 191.715976,15.2193277 C192.833696,16.7227251 194.164849,18.0557503 195.670118,19.1715976 C194.164849,20.2893166 192.833696,21.6204692 191.715976,23.1257396 Z"/>
    <path fill="#F58220" d="M90.5325444,42.6035503 C90.5325444,39.7802328 88.2434358,37.4911243 85.4201183,37.4911243 C76.9501666,37.4911243 70.0828402,30.6262941 70.0828402,22.1538462 C70.0828402,19.3305287 67.7937317,17.0414201 64.9704142,17.0414201 C62.1470974,17.0414201 59.8579882,19.3305287 59.8579882,22.1538462 C59.8579882,30.6262941 52.9906625,37.4911243 44.5207101,37.4911243 C41.6973932,37.4911243 39.408284,39.7802328 39.408284,42.6035503 C39.408284,45.4268671 41.6973932,47.7159763 44.5207101,47.7159763 C52.9906625,47.7159763 59.8579882,54.583302 59.8579882,63.0532544 C59.8579882,65.8765713 62.1470974,68.1656805 64.9704142,68.1656805 C67.7937317,68.1656805 70.0828402,65.8765713 70.0828402,63.0532544 C70.0828402,54.583302 76.9501666,47.7159763 85.4201183,47.7159763 C88.2434358,47.7159763 90.5325444,45.4268671 90.5325444,42.6035503 Z M64.9691809,47.8106509 C63.4994055,45.8279324 61.7435657,44.0745592 59.7633136,42.6023173 C61.7435657,41.1325408 63.4994055,39.376701 64.9691809,37.3964497 C66.4414235,39.376701 68.1947974,41.1325408 70.1775148,42.6023173 C68.1947974,44.0745592 66.4414235,45.8279324 64.9691809,47.8106509 Z"/>
    <path fill="#FFCA65" d="M230.059172,138.994083 C230.059172,132.818076 225.051747,127.810651 218.87574,127.810651 C212.699733,127.810651 207.692308,132.818076 207.692308,138.994083 C207.692308,145.171909 212.699733,150.177515 218.87574,150.177515 C225.051747,150.177515 230.059172,145.171909 230.059172,138.994083 Z M215.147929,138.994083 C215.147929,136.935414 216.817071,135.266272 218.87574,135.266272 C220.934409,135.266272 222.60355,136.935414 222.60355,138.994083 C222.60355,141.052751 220.934409,142.721893 218.87574,142.721893 C216.817071,142.721893 215.147929,141.052751 215.147929,138.994083 Z"/>
    <path fill="#F58220" d="M29.8224852,77.7514793 C29.8224852,69.5168033 23.1459186,62.8402367 14.9112426,62.8402367 C6.67656759,62.8402367 0,69.5168033 0,77.7514793 C0,85.9879749 6.67656759,92.6627219 14.9112426,92.6627219 C23.1459186,92.6627219 29.8224852,85.9879749 29.8224852,77.7514793 Z M7.4556213,77.7514793 C7.4556213,73.6341413 10.7939051,70.295858 14.9112426,70.295858 C19.0285806,70.295858 22.3668639,73.6341413 22.3668639,77.7514793 C22.3668639,81.8706369 19.0285806,85.2071006 14.9112426,85.2071006 C10.7939051,85.2071006 7.4556213,81.8706369 7.4556213,77.7514793 Z"/>
    <g transform="translate(68.166 48.994)">
      <path fill="url(#benefit-perfect-shine-a)" d="M92.6995722,93.9531964 C90.4280926,88.9097361 87.2443815,84.3311984 83.3093757,80.4490289 C79.2005193,76.9732412 74.3889422,74.4305579 69.2056687,72.9959091 C62.6082767,71.2892623 55.6562096,71.5586549 49.2100736,73.7707384 C44.7609196,75.8622806 40.498335,78.331042 36.4688657,81.1500649 L18.9036745,91.6287086 L8.48239751,97.6428597 C17.8559089,114.351001 34.0709622,126.09972 52.8433868,129.784894 C71.6158113,133.470068 91.05684,128.720917 106.029969,116.792212 L99.9539594,106.571845 C97.5603799,102.439422 94.9826788,98.3069991 92.6995722,93.9531964 Z"/>
      <path fill="url(#benefit-perfect-shine-b)" d="M39.7835054,68.3406319 C47.1366263,64.172085 52.4513744,57.1449186 54.4743954,48.9163192 C56.5360284,41.3852394 55.7647377,33.3561851 52.3074892,26.3590528 L48.6347666,20.3880117 L39.7835054,5.20240104 C7.21736923,19.0149628 -8.41668269,56.3826287 4.56209653,89.3867088 L24.2846164,77.628918 L39.7835054,68.3406319 Z"/>
      <path fill="url(#benefit-perfect-shine-c)" d="M59.2769163,19.7056901 C64.1271161,27.357352 71.7258526,32.8067657 80.4719872,34.9056788 C86.0864714,36.4996298 92.056243,36.2530198 97.523385,34.2012891 C100.263498,32.8462503 102.898924,31.2847742 105.407365,29.530073 L115.454855,23.4871507 C99.294766,3.91835625 73.3600852,-4.37307891 49.0094079,2.24423967 L49.3394349,2.76326368 L59.2769163,19.7056901 Z"/>
      <path fill="url(#benefit-perfect-shine-d)" d="M120.960838,30.7414607 L106.657402,39.2813873 C99.9424115,44.0788776 95.2193763,51.1835808 93.3861723,59.2448521 C92.4937408,62.8692718 92.1826395,66.6131052 92.4645591,70.3356658 C93.0912561,79.9846738 99.8374644,88.487631 104.629853,96.5839251 C107.406981,101.291359 110.208685,105.986471 113.034965,110.669259 C133.61481,88.9895767 136.880092,56.0611176 120.960838,30.7414607 L120.960838,30.7414607 Z"/>
    </g>
  </g>
</svg>
