<svg xmlns="http://www.w3.org/2000/svg" width="201" height="180" viewBox="0 0 201 180">
  <g fill="none">
    <path fill="#F58220" d="M45.2200232,178.835969 C46.7417384,180.374068 49.2191275,180.390988 50.7607844,178.868269 L69.7944957,160.066544 C73.0281403,156.82423 74.0114259,152.023823 72.5894198,147.850959 L76.6836316,143.891892 C78.8879708,141.75701 81.7902743,140.580364 84.8582484,140.580364 L137.04909,140.580364 C146.308235,140.580364 155.059631,137.01505 161.694125,130.54119 C161.967175,130.275099 159.621709,133.045216 197.299499,87.8927737 C202.887814,81.263566 202.05179,71.3089876 195.43417,65.6995395 C188.857968,60.1423865 179.006703,60.9406601 173.403048,67.4560486 L150.236776,91.3304256 C147.311463,87.7205066 142.850628,85.4702672 138.030841,85.4702672 L94.2523851,85.4702672 C88.0228638,82.8570365 81.4129133,81.5342715 74.5928071,81.5342715 C55.6879508,81.5342715 39.1807163,90.2891321 30.3219411,106.703728 C26.5897507,105.994664 22.6535397,107.126705 19.8217995,109.966036 L1.1455075,128.747767 C-0.379275812,130.281251 -0.38234359,132.762206 1.13937156,134.300305 L45.2200232,178.835969 Z M74.5912728,89.4062634 C80.604502,89.4062634 86.4183131,90.6198236 91.874705,93.013106 C92.3717168,93.2315163 92.9070785,93.3437975 93.4485759,93.3437975 L138.030841,93.3437975 C142.287655,93.3437975 145.883321,96.8245162 145.883321,101.215789 C145.883321,105.557844 142.361287,109.08932 138.030841,109.08932 L105.999658,109.08932 C103.832134,109.08932 102.074185,110.851982 102.074185,113.025316 C102.074185,115.200188 103.832134,116.961312 105.999658,116.961312 L138.030841,116.961312 C146.690198,116.961312 153.734267,109.89836 153.734267,101.215789 C153.734267,100.523645 153.685179,99.8376524 153.596208,99.1578127 C176.006224,76.0601761 179.166238,72.8147865 179.301229,72.6532861 C182.099221,69.3417585 187.066271,68.9218575 190.370479,71.7150458 C193.677755,74.5190005 194.096534,79.4962897 191.290872,82.8262749 L156.078199,125.034795 C150.936274,129.984398 144.185197,132.708372 137.04909,132.708372 L84.8582484,132.708372 C79.7439354,132.708372 74.9026723,134.669449 71.2303075,138.227072 L67.8938856,141.455543 L37.1374452,110.61819 C44.3257087,97.0967597 57.8140567,89.4062634 74.5912728,89.4062634 L74.5912728,89.4062634 Z M25.3779007,115.529341 C26.6725858,114.231186 28.660633,113.997394 30.2391056,114.975626 C30.9186619,115.390912 28.9674304,113.609793 64.2429964,148.930705 C65.8122653,150.504181 65.7278959,153.011282 64.2644725,154.478629 L48.0379573,170.507162 L9.46278506,131.533264 L25.3779007,115.529341 Z"/>
    <path fill="#FFCA65" d="M120.1,58.6 C115.295459,58.6 111.4,54.7059568 111.4,49.9 C111.4,48.2984862 110.101514,47 108.5,47 C106.898487,47 105.6,48.2984862 105.6,49.9 C105.6,54.7059568 101.704541,58.6 96.9,58.6 C95.2984866,58.6 94,59.8984862 94,61.5 C94,63.1015134 95.2984866,64.4 96.9,64.4 C101.704541,64.4 105.6,68.2954587 105.6,73.1 C105.6,74.7015134 106.898487,76 108.5,76 C110.101514,76 111.4,74.7015134 111.4,73.1 C111.4,68.2954587 115.295459,64.4 120.1,64.4 C121.701514,64.4 123,63.1015134 123,61.5 C123,59.8984862 121.701514,58.6 120.1,58.6 Z M108.499294,64.4794521 C107.658303,63.3449599 106.653629,62.3416969 105.520548,61.4992945 C106.653629,60.6583027 107.658303,59.6536284 108.499294,58.5205479 C109.341697,59.6536284 110.344961,60.6583027 111.479452,61.4992945 C110.344961,62.3416969 109.341697,63.3449599 108.499294,64.4794521 Z"/>
    <path fill="#F58220" d="M83.1 24C73.3252443 24 65.4 15.943359 65.4 6 65.4 2.68652325 62.7582521 0 59.5 0 56.2417486 0 53.6 2.68652325 53.6 6 53.6 15.943359 45.6747564 24 35.9 24 32.6417486 24 30 26.6865233 30 30 30 33.313476 32.6417486 36 35.9 36 45.6747564 36 53.6 44.0595697 53.6 54 53.6 57.313476 56.2417486 60 59.5 60 62.7582521 60 65.4 57.313476 65.4 54 65.4 44.0595697 73.3252443 36 83.1 36 86.3582521 36 89 33.313476 89 30 89 26.6865233 86.3582521 24 83.1 24zM59.4985656 36.1589404C57.7890945 33.8137879 55.7469066 31.7399042 53.4437086 29.9985417 55.7469066 28.2600951 57.7890945 26.183294 59.4985656 23.8410596 61.2109063 26.183294 63.2502261 28.2600951 65.5562914 29.9985417 63.2502261 31.7399042 61.2109063 33.8137879 59.4985656 36.1589404zM180 29.5C180 27.3462401 178.298535 25.6 176.2 25.6 169.904395 25.6 164.8 20.3631834 164.8 13.9 164.8 11.7462401 163.098535 10 161 10 158.901465 10 157.2 11.7462401 157.2 13.9 157.2 20.3631834 152.095606 25.6 145.8 25.6 143.701465 25.6 142 27.3462401 142 29.5 142 31.6537594 143.701465 33.4 145.8 33.4 152.095606 33.4 157.2 38.6387203 157.2 45.1 157.2 47.2537594 158.901465 49 161 49 163.098535 49 164.8 47.2537594 164.8 45.1 164.8 38.6387203 169.904395 33.4 176.2 33.4 178.298535 33.4 180 31.6537594 180 29.5zM161.194948 33.4795918C160.089173 31.9642744 158.768179 30.624237 157.278351 29.4990577 158.768179 28.3757625 160.089173 27.0338401 161.194948 25.5204082 162.30258 27.0338401 163.621718 28.3757625 165.113402 29.4990577 163.621718 30.624237 162.30258 31.9642744 161.194948 33.4795918z"/>
  </g>
</svg>
