<svg xmlns="http://www.w3.org/2000/svg" width="190" height="180" viewBox="0 0 190 180">
  <g fill="none">
    <path fill="#FFCA65" d="M91.3333333,85.1111111 C88.1111111,85.1111111 85.4444444,82.4444444 85.4444444,79.1111111 C85.4444444,75.7777778 88.1111111,73.1111111 91.3333333,73.1111111 C93.4444444,73.1111111 95.5555556,74.2222222 97.6666667,76.2222222 C100,78.5555556 103.666667,78.4444444 106,76.1111111 C108.222222,73.6666667 108.222222,69.8888889 105.888889,67.5555556 C102.888889,64.5555556 99.8888889,62.8888889 97.2222222,62 L97.2222222,55 C97.2222222,51.6666667 94.5555556,49 91.3333333,49 C88.1111111,49 85.4444444,51.6666667 85.4444444,55 L85.4444444,62.1111111 C78.6666667,64.5555556 73.6666667,71.3333333 73.6666667,79.2222222 C73.6666667,89.2222222 81.5555556,97.3333333 91.2222222,97.3333333 C94.4444444,97.3333333 97.1111111,100 97.1111111,103.333333 C97.1111111,106.666667 94.4444444,109.333333 91.2222222,109.333333 C88.6666667,109.333333 86,107.666667 83.5555556,104.777778 C81.4444444,102.222222 77.7777778,101.888889 75.3333333,104 C72.8888889,106.111111 72.5555556,110 74.6666667,112.444444 C77.7777778,116.333333 81.4444444,119 85.4444444,120.333333 L85.4444444,127.333333 C85.4444444,130.666667 88.1111111,133.333333 91.3333333,133.333333 C94.5555556,133.333333 97.2222222,130.666667 97.2222222,127.333333 L97.2222222,120.222222 C104,117.777778 108.888889,111 108.888889,103.222222 C108.888889,93.2222222 101,85.1111111 91.3333333,85.1111111 Z"/>
    <path fill="#FFCA65" d="M67.1111111,39.6666667 C74.4444444,36.2222222 82.3333333,34.5555556 90.5555556,34.5555556 C120.333333,34.5555556 144.777778,58 146.444444,87.4444444 L155.222222,97.2222222 C155.444444,95 155.555556,92.7777778 155.555556,90.5555556 C155.555556,54.6666667 126.444444,25.5555556 90.5555556,25.5555556 C81.1111111,25.5555556 71.8888889,27.5555556 63.3333333,31.5555556 C61.1111111,32.5555556 60.1111111,35.2222222 61.1111111,37.5555556 C62.2222222,39.7777778 64.8888889,40.6666667 67.1111111,39.6666667 Z"/>
    <path fill="#FFCA65" d="M178.666667,98.1111111 L178.666667,98.1111111 C179.444444,97.2222222 179.888889,96.1111111 179.888889,94.8888889 C179.888889,92.2222222 177.777778,90.1111111 175.111111,90.1111111 C173.666667,90.1111111 172.444444,90.6666667 171.666667,91.6666667 L171.666667,91.6666667 L157.666667,107 L143.666667,91.6666667 L143.666667,91.6666667 C142.777778,90.6666667 141.555556,90.1111111 140.222222,90.1111111 C137.555556,90.1111111 135.444444,92.2222222 135.444444,94.8888889 C135.444444,96.1111111 135.888889,97.2222222 136.666667,98.1111111 L136.666667,98.1111111 L154.111111,117.333333 C155,118.333333 156.333333,118.888889 157.666667,118.888889 C159,118.888889 160.222222,118.333333 161.222222,117.333333 L178.666667,98.1111111 Z"/>
    <path fill="#FFCA65" d="M188.111111,117.666667 L188.111111,117.666667 C189.222222,116.333333 189.888889,114.666667 189.888889,112.777778 C189.888889,108.777778 186.888889,105.555556 183.111111,105.555556 C181.111111,105.555556 179.333333,106.444444 178.111111,107.888889 L178.111111,107.888889 L158.222222,131 L138.333333,107.888889 L138.333333,107.888889 C137.111111,106.444444 135.333333,105.555556 133.333333,105.555556 C129.555556,105.555556 126.555556,108.777778 126.555556,112.777778 C126.555556,114.666667 127.222222,116.333333 128.333333,117.666667 L128.333333,117.666667 L153.222222,146.555556 C154.555556,148 156.333333,148.888889 158.222222,148.888889 C160.111111,148.888889 161.888889,148 163.222222,146.555556 L188.111111,117.666667 Z"/>
    <path fill="#F58220" d="M149.222222,151.333333 L144.444444,145.888889 C130.333333,159.555556 111.222222,168 90,168 C47,168 12,133 12,90 C12,47 47,12 90,12 C132.777778,12 167.666667,46.6666667 168,89.4444444 L169.666667,87.5555556 L169.666667,87.5555556 C171.222222,85.6666667 173.555556,84.4444444 176.111111,84.4444444 C177.444444,84.4444444 178.777778,84.7777778 179.888889,85.3333333 C177.444444,37.8888889 138.111111,0 90,0 C40.3333333,0 0,40.3333333 0,90 C0,139.666667 40.3333333,180 90,180 C114.444444,180 136.666667,170.111111 152.888889,154.222222 C151.555556,153.555556 150.222222,152.555556 149.222222,151.333333 Z"/>
    <path fill="#FFCA65" d="M130.444444,129.888889 C120.333333,140.222222 106.222222,146.555556 90.5555556,146.555556 C59.6666667,146.555556 34.5555556,121.444444 34.5555556,90.5555556 C34.5555556,74.7777778 41.2222222,59.6666667 53,49 C54.8888889,47.3333333 55,44.4444444 53.3333333,42.6666667 C51.6666667,40.7777778 48.7777778,40.6666667 47,42.3333333 C33.3333333,54.6666667 25.5555556,72.2222222 25.5555556,90.5555556 C25.5555556,126.444444 54.6666667,155.555556 90.5555556,155.555556 C108.444444,155.555556 124.555556,148.333333 136.333333,136.666667 L130.444444,129.888889 Z"/>
  </g>
</svg>
