<svg xmlns="http://www.w3.org/2000/svg" width="98" height="110" viewBox="0 0 98 110">
  <g fill="none">
    <path fill="#FFCA65" d="M48.9998361,14 C39.2262618,13.9989854 30.6242642,20.4470323 27.8840251,29.8283862 C25.143786,39.20974 28.922636,49.2739946 37.1601823,54.5336823 C43.6557912,58.6932284 51.6291675,59.1310754 59.0398976,55.7290045 C60.5645439,54.9740423 61.2119532,53.1432127 60.5007993,51.5976738 C59.7896454,50.0521348 57.9779987,49.3527467 56.4127555,50.0194801 C50.9942749,52.5130186 45.2123729,52.228418 40.5513849,49.2423018 C34.1962578,45.1881189 31.615904,37.1920038 34.4025147,30.1879091 C37.1891254,23.1838145 44.5573844,19.145618 51.9607537,20.5650635 C59.364123,21.984509 64.7162023,28.4615716 64.7145246,35.9996205 C64.6845283,37.7046741 63.3005939,39.0749056 61.5952874,39.0879728 C59.8899808,39.1010399 58.4852099,37.7521774 58.4290871,36.0477836 C58.4290871,36.032459 58.4290871,36.0149451 58.4290871,35.9996205 C58.4355283,31.5426222 55.3243989,27.6880843 50.9663505,26.7536529 C46.608302,25.8192216 42.1903129,28.0594028 40.3688195,32.1272265 C38.5473262,36.1950502 39.8184391,40.9825851 43.417867,43.611195 C47.0172948,46.2398049 51.9646806,45.9935494 55.2852737,43.0204965 C58.0516148,45.5124488 62.0267866,46.1398823 65.4262002,44.6211209 C68.8256138,43.1023596 71.0104892,39.7227921 71,35.9996205 C70.9866897,23.8550673 61.1446684,14.0132721 48.9998361,14 Z M52.0976745,36.5031445 C51.8296205,38.1286801 50.3490672,39.2693994 48.7088773,39.1141052 C47.0686874,38.958811 45.8285427,37.5604943 45.8703446,35.913537 C45.9121465,34.2665797 47.221631,32.9329729 48.8675872,32.8610815 C50.5135433,32.7891901 51.9343218,34.0035456 52.1195674,35.640586 C52.0726873,35.9257353 52.0653204,36.2159841 52.0976745,36.5031445 Z"/>
    <path fill="#F58220" d="M78.4485956,29.9380307 L78.4485956,29.9380307 L78.4485956,44.6404446 C78.4492374,44.6469846 78.4492374,44.6535719 78.4485956,44.6601119 C78.4485956,45.2588725 79.0136351,46.0390095 80.4120534,45.9865633 C81.7210254,45.9363024 84.6749386,42.286922 84.9760022,42.0530994 L85,41.3734843 L85,28.5831709 L85,28.5831709 L85,3.27788657 C85,1.46755981 83.5348833,0 81.7275702,0 L16.2724298,0 C14.4651167,0 13,1.46755981 13,3.27788657 L13,28.5809856 L13,28.5809856 L13,40.9123949 L13,40.9123949 L13,42.0334321 C13,42.0334321 16.2026179,45.9450434 17.5814017,45.9974896 C18.9601854,46.0499358 19.5448596,45.2697988 19.5448596,44.6710382 L19.5448596,29.9380307 L19.5448596,29.9380307 L19.5448596,6.55577314 L78.4485956,6.55577314 L78.4485956,29.9380307 Z"/>
    <path fill="#F58220" d="M97.9847559,40.4024934 C97.7212506,39.1000428 96.8566921,38 94.8401147,38 C92.8235373,38 90.2886603,40.5058975 90.2886603,40.5058975 L90.1079087,40.6885046 L90.1079087,40.6885046 L84.9336237,45.9313084 L84.9336237,45.9181079 L78.4004355,52.5183646 L78.4004355,52.5315651 L60.7150952,70.3984599 L37.2870825,70.3984599 L19.6017422,52.5315651 L19.6017422,52.5315651 L13.068554,45.9313084 L13.068554,45.9313084 L7.88773583,40.6973049 L7.88773583,40.6973049 L7.5893869,40.3958932 C7.06455412,39.9052741 4.91513522,38.0044002 3.15770761,38.0044002 C1.14766339,38.0044002 0.280927091,39.104443 0.0152441057,40.3958932 C0.0152441057,40.494897 0,40.596101 0,40.6951048 L0,100.099615 C0,105.567447 4.38751195,110 9.79978223,110 L88.2002178,110 C93.612488,110 98,105.567447 98,100.099615 L98,40.6973049 C98,40.596101 98,40.4992972 97.9847559,40.4024934 Z M6.53536588,98.7333619 L6.53536588,48.6638147 L31.3157485,73.6985883 L6.53536588,98.7333619 Z M11.1543299,103.399743 L37.2870825,76.9987166 L60.7150952,76.9987166 L86.8478478,103.399743 L11.1543299,103.399743 Z M91.4668118,98.7333619 L66.6864292,73.6985883 L91.4668118,48.6638147 L91.4668118,98.7333619 Z"/>
  </g>
</svg>
