<svg xmlns="http://www.w3.org/2000/svg" width="107" height="110" viewBox="0 0 107 110">
  <g fill="none">
    <path fill="#F58220" d="M50.8843717,0.0636142266 C22.3955265,1.44685131 -0.0861760904,25.6406096 0,54.7243662 C0.026562641,63.5825555 2.12370943,71.943537 5.82319092,79.331149 L0.143171123,107.446534 C-0.164087067,108.967359 1.18103821,110.299033 2.66263669,109.941254 L29.6794288,103.414154 C36.6204713,106.939856 44.4167287,108.976303 52.6678107,109.104683 C81.7861354,109.55822 106.065724,85.9813677 106.973309,56.2996465 C107.946165,24.482826 82.194781,-1.45694688 50.8843717,0.0636142266 Z M83.1211993,84.7612358 C75.2091074,92.8294172 64.6893196,97.2727178 53.5000651,97.2727178 C46.9483195,97.2727178 40.6757119,95.7737286 34.8558651,92.817579 L31.0934357,90.9063547 L14.5293556,94.9082189 L18.0160008,77.648798 L16.1623903,73.9473629 C13.1411471,67.913787 11.6092419,61.3893171 11.6092419,54.5554735 C11.6092419,43.1452145 15.9665809,32.4181556 23.8786728,24.3497111 C31.7200773,16.3536117 42.411424,11.8379661 53.500839,11.8379661 C64.6900936,11.8379661 75.2093654,16.2815297 83.1214573,24.3494481 C91.0335492,32.4176295 95.3911462,43.1446883 95.3911462,54.5546842 C95.3911462,65.8631341 90.9626037,76.7653994 83.1211993,84.7612358 Z"/>
    <path fill="#FFCA65" d="M79.1886391,66.240213 L68.7732061,63.1970142 C67.4038939,62.7970238 65.9293099,63.192265 64.9315607,64.2268048 L62.3845519,66.8673748 C61.3105713,67.9808045 59.6809317,68.3385796 58.2595021,67.7533694 C53.3324674,65.7243942 42.9681146,56.3473103 40.321279,51.6569214 C39.557669,50.3039196 39.6839434,48.6124034 40.6215372,47.3778684 L42.845211,44.4504979 C43.7164265,43.3035597 43.9002634,41.7632272 43.3241203,40.4374015 L38.9421138,30.352419 C37.8925066,27.9369096 34.8590691,27.2337602 32.8773132,28.9392602 C29.9704094,31.4410472 26.5213295,35.2428031 26.102057,39.4545754 C25.3628203,46.880255 28.4924545,56.2409804 40.3272427,67.4808165 C53.9996214,80.4659934 64.9484146,82.1815195 72.0770834,80.4243057 C76.1204567,79.4277597 79.3517327,75.4326048 81.3910511,72.1614431 C82.7813658,69.9311536 81.6835306,66.9692193 79.1886391,66.240213 Z"/>
  </g>
</svg>
