<svg xmlns="http://www.w3.org/2000/svg" width="116" height="110" viewBox="0 0 116 110">
  <g fill="none">
    <path fill="#FFCA65" d="M89.4620929,55.8309229 C89.1778361,56.2608559 89.1778361,56.6907888 89.0357076,57.2640328 C88.8935792,59.1270756 90.3148634,60.8468074 92.1625328,60.9901184 C94.0102022,61.1334293 95.7157432,59.7003195 95.8578716,57.8372767 C95.8578716,57.4073438 95.8578716,56.9774108 96,56.2608559 C96,55.544301 96,55.114368 96,54.6844351 C96,50.5284165 95.2893579,46.515709 94.0102022,42.6463124 C92.3046612,37.6304279 89.3199645,33.1877874 85.7667541,29.4617018 C81.3607732,25.0190613 75.9598934,21.8662197 69.8483716,20.1464879 C67.0058032,19.429933 63.8789781,19 60.8942814,19 C59.8993825,19 58.9044836,19 57.7674562,19.143311 C56.7725573,19.286622 55.7776584,19.429933 54.7827595,19.5732439 C52.9350901,19.8598659 51.6559344,21.7229087 52.0823196,23.4426405 C52.3665764,25.3056833 54.2142458,26.5954822 55.9197868,26.1655492 C56.7725573,26.0222382 57.4831994,25.8789272 58.3359699,25.8789272 C58.4780983,25.8789272 58.6202267,25.8789272 58.7623551,25.8789272 C59.4729972,25.8789272 60.1836393,25.7356163 60.8942814,25.7356163 C68.7113442,25.7356163 75.9598934,28.8884579 81.0765164,34.1909643 C86.1931393,39.3501598 89.3199645,46.372398 89.4620929,54.2545021 L89.4620929,54.5411241 C89.4620929,55.114368 89.4620929,55.544301 89.4620929,55.8309229 Z"/>
    <path fill="#FFCA65" d="M107.889142,59.3104551 C107.744023,61.1503481 109.195218,62.8487109 111.081772,62.9902412 C112.968326,63.1317714 114.709761,61.7164691 114.85488,59.8765761 C115,58.3197435 115,56.762911 115,55.2060784 C115,52.0924134 114.709761,49.1202785 114.274402,46.1481437 C112.387848,34.8257252 106.728186,24.6355486 98.7466107,16.8513859 C89.6040793,7.93498132 77.4140374,2.13224185 63.9179195,1.14153023 C62.466724,1 60.870409,1 59.4192135,1 C57.8228985,1 56.2265835,1 54.6302685,1.14153023 C53.0339535,1.28306046 51.4376385,1.42459069 49.8413234,1.70765115 C47.9547693,1.99071162 46.6486934,3.83060462 47.0840521,5.52896739 C47.3742911,7.36886039 49.2608453,8.64263247 51.0022798,8.21804178 C52.0181166,8.07651155 52.8888339,7.93498132 53.9046708,7.79345109 C54.3400294,7.79345109 54.775388,7.65192085 55.2107467,7.65192085 C56.6619421,7.51039062 58.1131376,7.51039062 59.4192135,7.51039062 C64.3532781,7.51039062 68.9971036,8.21804178 73.4958096,9.49181386 C81.3322651,11.7562976 88.2980034,15.8606742 93.9576657,21.3803533 C98.6014912,25.9093206 102.374599,31.4289997 104.841632,37.3732694 C107.018425,42.7514181 108.324501,48.6956878 108.324501,54.923018 C108.324501,55.3476087 108.324501,55.9137296 108.324501,56.3383203 C108.034262,57.4705621 107.889142,58.3197435 107.889142,59.3104551 Z"/>
    <path fill="#F58220" d="M113.273564,82.1704441 L93.0622112,71.3781127 C86.3250937,67.7428011 86.0967168,70.1284743 79.017034,77.6263045 C77.3042076,79.4439604 74.1069315,84.2153069 70.3387132,83.306479 C62.4597114,81.3752197 47.7294037,69.9012673 42.9334896,64.6755069 C40.6497209,62.1762301 30.8295158,50.2478638 30.7153274,46.3853452 C30.4869505,40.4779638 43.5044317,37.5242732 39.2794598,26.2775278 L30.2585736,6.16971037 C21.8086297,-13.1428827 -1.82837571,17.7572662 0.112827635,32.1849092 C5.13711864,67.7428011 67.8265677,125.226166 102.768228,106.254384 C110.533041,101.937451 121.038377,86.8281871 113.273564,82.1704441 Z"/>
  </g>
</svg>
