<svg xmlns="http://www.w3.org/2000/svg" width="45" height="45" viewBox="0 0 45 45">
  <defs>
    <filter id="fb-a" width="153.3%" height="153.3%" x="-26.7%" y="-26.7%" filterUnits="objectBoundingBox">
      <feOffset dy="2" in="SourceAlpha" result="shadowOffsetOuter1"/>
      <feGaussianBlur in="shadowOffsetOuter1" result="shadowBlurOuter1" stdDeviation="2"/>
      <feColorMatrix in="shadowBlurOuter1" result="shadowMatrixOuter1" values="0 0 0 0 0   0 0 0 0 0   0 0 0 0 0  0 0 0 0.5 0"/>
      <feMerge>
        <feMergeNode in="shadowMatrixOuter1"/>
        <feMergeNode in="SourceGraphic"/>
      </feMerge>
    </filter>
  </defs>
  <path fill="#F58220" d="M38.9360055,0 L6.06388444,0 C2.71496019,0 0,2.71483018 0,6.06383994 L0,38.9359399 C0,42.2849497 2.7148501,44.9997798 6.06388444,44.9997798 L22.2762577,44.9997798 L22.3038884,28.9192931 L18.1261543,28.9192931 C17.5832283,28.9192931 17.1425688,28.4802881 17.1404773,27.9373661 L17.1204423,22.753958 C17.1183507,22.2080638 17.5603312,21.7644354 18.1062294,21.7644354 L22.2763678,21.7644354 L22.2763678,16.7559468 C22.2763678,10.9436432 25.8261923,7.77879977 31.0111795,7.77879977 L35.265861,7.77879977 C35.8102181,7.77879977 36.2516482,8.22011654 36.2516482,8.76457968 L36.2516482,13.1352559 C36.2516482,13.6794989 35.8105483,14.1207056 35.2664114,14.1210358 L32.655369,14.1222467 C29.8356104,14.1222467 29.2896021,15.4621589 29.2896021,17.4285449 L29.2896021,21.7645454 L35.4855853,21.7645454 C36.0759568,21.7645454 36.5340093,22.2800571 36.4644373,22.8663513 L35.8500679,28.0497593 C35.7912839,28.5457866 35.3706594,28.9195133 34.8712159,28.9195133 L29.3172328,28.9195133 L29.2896021,45 L38.9362256,45 C42.2851499,45 45,42.2851698 45,38.9362701 L45,6.06383994 C44.9998899,2.71483018 42.2850398,0 38.9360055,0 Z" filter="url(#fb-a)"/>
</svg>
