<svg xmlns="http://www.w3.org/2000/svg" width="45" height="45" viewBox="0 0 45 45">
  <defs>
    <filter id="ig-a" width="153.3%" height="153.3%" x="-26.7%" y="-26.7%" filterUnits="objectBoundingBox">
      <feOffset dy="2" in="SourceAlpha" result="shadowOffsetOuter1"/>
      <feGaussianBlur in="shadowOffsetOuter1" result="shadowBlurOuter1" stdDeviation="2"/>
      <feColorMatrix in="shadowBlurOuter1" result="shadowMatrixOuter1" values="0 0 0 0 0   0 0 0 0 0   0 0 0 0 0  0 0 0 0.5 0"/>
      <feMerge>
        <feMergeNode in="shadowMatrixOuter1"/>
        <feMergeNode in="SourceGraphic"/>
      </feMerge>
    </filter>
  </defs>
  <g fill="none" filter="url(#ig-a)">
    <path fill="#F58220" d="M31.5389674,0 L13.3822826,0 C6.00326087,0 0,6.00326087 0,13.3822826 L0,31.5389674 C0,38.9179891 6.00326087,44.92125 13.3822826,44.92125 L31.5389674,44.92125 C38.9179891,44.92125 44.92125,38.9179891 44.92125,31.5389674 L44.92125,13.3822826 C44.9211685,6.00326087 38.9179076,0 31.5389674,0 Z M40.4021739,31.5389674 C40.4021739,36.4339402 36.4339402,40.4021739 31.5389674,40.4021739 L13.3822826,40.4021739 C8.48730978,40.4021739 4.51907609,36.4339402 4.51907609,31.5389674 L4.51907609,13.3822826 C4.51907609,8.48722826 8.48730978,4.51907609 13.3822826,4.51907609 L31.5389674,4.51907609 C36.4339402,4.51907609 40.4021739,8.48722826 40.4021739,13.3822826 L40.4021739,31.5389674 L40.4021739,31.5389674 Z"/>
    <path fill="#FFCA65" d="M22.460625,10.8423913 C16.0543207,10.8423913 10.8423913,16.0543207 10.8423913,22.4605435 C10.8423913,28.8667663 16.0543207,34.0787772 22.460625,34.0787772 C28.8669293,34.0787772 34.0788587,28.8668478 34.0788587,22.4605435 C34.0788587,16.0542391 28.8669293,10.8423913 22.460625,10.8423913 Z M22.460625,29.5597826 C18.539837,29.5597826 15.3614674,26.381413 15.3614674,22.460625 C15.3614674,18.539837 18.5399185,15.3614674 22.460625,15.3614674 C26.381413,15.3614674 29.5597826,18.539837 29.5597826,22.460625 C29.5597826,26.3813315 26.3813315,29.5597826 22.460625,29.5597826 Z"/>
    <circle cx="34.101" cy="10.93" r="2.784" fill="#FFCA65"/>
  </g>
</svg>
