<?xml version="1.0" encoding="UTF-8"?>
<svg width="169px" height="175px" viewBox="0 0 169 175" version="1.1" xmlns="http://www.w3.org/2000/svg" xmlns:xlink="http://www.w3.org/1999/xlink">
    <!-- Generator: sketchtool 57.1 (101010) - https://sketch.com -->
    <title>F81386DE-DD2D-41BB-8DA3-3CBE7BBB0AE2</title>
    <desc>Created with sketchtool.</desc>
    <g id="Page-1" stroke="none" stroke-width="1" fill="none" fill-rule="evenodd">
        <g id="4-Product-Details" transform="translate(-252.000000, -4747.000000)" fill-rule="nonzero">
            <g id="step3-02" transform="translate(252.000000, 4746.000000)">
                <path d="M46.5268377,102.495765 C45.5162033,102.510714 44.5242344,102.218343 43.6782714,101.656183 C42.8286272,100.954887 42.379741,99.8686469 42.4818736,98.761073 C42.4818736,95.1904376 42.4818736,91.6391029 42.4818736,88.107069 C42.4818736,84.575035 42.4818736,80.9561478 42.4818736,77.2504073 C42.3173258,76.0938081 42.699223,74.9260873 43.5122825,74.0997431 C44.3253419,73.2733988 45.4742897,72.8852617 46.6122947,73.0524981 C48.3450107,73.1162027 50.0638626,72.7169029 51.5972856,71.8944542 C52.8557555,71.1886241 53.9376169,70.1980491 54.7591941,68.9993444 C55.5177687,67.8747965 56.0680133,66.6189702 56.3828769,65.2936039 C56.6888611,64.0725144 56.851413,62.8188786 56.8671331,61.5589122 C56.8501784,60.4361394 56.7741078,59.3150935 56.6392479,58.2005849 C56.4681608,56.7813966 56.0637349,55.4014969 55.44285,54.1184801 C54.7873526,52.7489416 53.8087812,51.5654147 52.5942838,50.6732995 C50.9649941,49.6213861 49.0522024,49.1151243 47.1250366,49.2257446 C45.4484882,49.1688982 43.7816219,49.5057372 42.2539883,50.2100819 C41.0832547,50.8173029 40.0982022,51.7383587 39.4054221,52.8735829 C38.6314916,54.0352069 38.0716764,55.3300862 37.7532537,56.6951278 C37.4668132,58.182904 37.3237086,59.6955096 37.3259687,61.2114991 L37.0411121,61.2114991 L37.0411121,61.2114991 C37.0411121,63.8750001 35.6643051,65.2067506 32.910691,65.2067506 L21.5164261,65.2067506 C18.8007929,65.2067506 16.009198,65.2067506 13.1416413,65.2067506 C12.0978003,65.2008061 11.0893345,64.821577 10.2930751,64.13556 C9.4138073,63.3154859 8.95206521,62.1316037 9.03970592,60.9219881 L9.03970592,60.9219881 L8.98273459,60.9219881 C8.7714322,54.4046691 9.83653328,47.9096447 12.1161575,41.8142635 C14.0454119,36.882294 17.0217088,32.4437566 20.8327702,28.8152206 C24.4882368,25.4302792 28.822816,22.8917398 33.5373756,21.3747885 C38.4722878,19.7722399 43.6250775,18.9710597 48.8056907,19 C54.0174205,18.9838565 59.1797702,20.0272901 63.9885488,22.0696148 C68.715745,24.0501355 73.0277133,26.9291711 76.6931542,30.5522865 C80.3491782,34.1804606 83.3055103,38.4713956 85.4097669,43.2039162 C87.5935448,48.1145648 88.7015523,53.4487772 88.6571324,58.837509 C88.6985819,63.5863198 87.7267478,68.2878347 85.8085662,72.6182316 C84.0119019,76.6587117 81.5125945,80.3365268 78.4307796,83.4748933 C81.3742981,85.5593723 84.1563978,87.7210543 86.7770787,89.9599392 C89.361818,92.1740276 91.6590907,94.7131318 93.6136377,97.5161758 C95.6378981,100.469179 97.2038767,103.72066 98.2568007,107.156891 C99.4781031,111.286749 100.064226,115.583599 99.9944261,119.895374 C100.041473,126.333833 98.679267,132.702362 96.0064333,138.539881 C93.4238834,144.193753 89.7641508,149.271206 85.2388529,153.478648 C80.5811961,157.775999 75.1698001,161.144635 69.286882,163.408874 C63.0681904,165.826091 56.4605239,167.043545 49.8026889,167 C45.5276675,167.002621 41.2563925,166.741577 37.0126264,166.217131 C32.9770922,165.709409 29.0112327,164.738166 25.1910765,163.322021 C21.5194288,161.935568 18.0798117,159.982597 14.9932094,157.531802 C11.7823063,154.990055 9.05926802,151.869223 6.96025256,148.325352 C4.59577721,144.189945 2.87574674,139.707298 1.86131898,135.036799 C0.534548709,128.935607 -0.086846773,122.69785 0.00975092347,116.450194 C0.026472131,115.38098 0.420751414,114.353489 1.12069176,113.555084 C2.03374281,112.68998 3.18813201,112.133697 4.4250286,111.962774 L27.4984152,111.962774 C28.4885732,112.030824 29.429333,112.427516 30.1760674,113.091866 C31.1283516,113.845084 31.6598247,115.022626 31.6003506,116.247536 C31.5360547,116.271952 31.4652468,116.271952 31.4009509,116.247536 L31.6003506,116.247536 C31.6003506,123.1958 33.167062,128.21399 36.3004849,131.302107 C39.7979461,134.540988 44.4216624,136.228972 49.1475186,135.992185 C51.3663256,136.018631 53.573022,135.656265 55.6707353,134.920994 C57.5807807,134.250684 59.3286234,133.174975 60.7981546,131.765324 C62.306469,130.264435 63.4563312,128.432229 64.1594627,126.409371 C65.0018032,123.954129 65.4069346,121.36598 65.3558606,118.766282 C65.7706604,114.19579 64.1993798,109.669324 61.0545255,106.375212 C58.148988,103.711711 53.4013776,102.37996 46.8116943,102.37996 L46.5268377,102.495765 Z" id="Path" fill="#F58220"></path>
                <g id="Group" transform="translate(18.000000, 0.000000)" fill="#FFFFFF">
                    <path d="M112.279245,112.813115 C112.279245,111.687869 112.279245,110.76459 112.279245,109.927869 C112.54589,107.182155 111.27532,104.514516 108.981132,103.003279 C104.286028,99.7022909 98.880714,97.5666554 93.2075472,96.7711475 C81.113561,94.4092881 68.6583211,94.6650118 56.6701887,97.5213115 C53.9682406,98.1941887 51.3294153,99.1016349 48.7833962,100.233443 C43.5637736,102.483934 39.4626415,105.657705 40.7245283,112.438033 C39.7692201,112.435877 38.9028973,113.001822 38.5162264,113.880656 L38.5162264,117.948852 L38.5162264,117.948852 C38.5043019,118.11213 38.5043019,118.276067 38.5162264,118.439344 L38.5162264,119.593443 C38.7456604,120.430164 39.5486792,120.834098 40.6384906,120.978361 L40.6384906,123.863607 L40.6384906,123.863607 C40.6384906,136.068197 40.6384906,148.301639 40.6384906,160.50623 C40.4219613,163.64618 41.9874555,166.639701 44.6822642,168.238689 C47.1341016,169.821136 49.7618366,171.109046 52.5116981,172.076066 C66.0193588,176.254661 80.3661688,176.880475 94.1826415,173.89377 C99.4379968,173.074468 104.450536,171.104619 108.866415,168.123279 C111.228803,166.54872 112.599701,163.845094 112.48,160.996721 C112.48,148.647869 112.48,136.299016 112.48,123.921311 L112.48,123.921311 L112.48,120.747541 C113.799245,121.007213 114.344151,120.747541 114.602264,119.997377 L114.602264,113.880656 C114.258113,113.101639 113.713208,112.52459 112.279245,112.813115 Z M45.370566,104.590164 C47.764816,102.942489 50.3823485,101.650111 53.1426415,100.752787 C62.3916986,98.0024025 72.0625178,96.9757 81.6784906,97.7232787 C88.1814051,97.8374787 94.6301159,98.9365874 100.807547,100.983607 C103.294383,101.885212 105.64095,103.138444 107.776604,104.705574 C109.222845,105.522827 110.118076,107.061703 110.118076,108.730492 C110.118076,110.399281 109.222845,111.938156 107.776604,112.75541 L107.346415,113.130492 L107.17434,113.130492 C103.350651,114.821458 99.3874012,116.173046 95.3298113,117.169836 C66.3350943,124.065574 48.754717,114.977049 44.8543396,112.52459 C43.4969491,111.614698 42.7260114,110.044697 42.8325466,108.407246 C42.9390818,106.769794 43.9068639,105.314287 45.370566,104.590164 Z M47.2633962,114.226885 C46.546318,113.81022 45.856595,113.347627 45.1984906,112.841967 L45.0264151,112.841967 L47.2633962,114.226885 Z" id="Shape"></path>
                    <g id="Ojh2Wz.tif" transform="translate(0.000000, 20.196721)">
                        <path d="M20.0754717,26.6596721 L26.2415094,20.0236066 C26.2415094,22.7645902 27.0732075,25.3613115 25.5532075,27.9291803 C23.9578943,30.9880202 24.8807128,34.7634813 27.7041509,36.7291803 C30.382299,38.7371506 34.0930774,38.5805974 36.594717,36.3540984 C39.0518347,34.1945767 39.7579815,30.6425184 38.3154717,27.6983607 C37.7595406,26.503347 37.4474755,25.2083039 37.3977358,23.8898361 C37.3977358,19.4754098 37.3977358,15.0609836 37.3977358,10.6465574 C37.3977358,10.0695082 37.3977358,9.49245902 37.3977358,8.48262295 C38.1085365,8.85776783 38.7809532,9.30231045 39.405283,9.80983607 C48.9650314,19.4273224 58.5247799,29.0448087 68.0845283,38.6622951 C68.4604843,39.2108528 68.7506457,39.8141414 68.9449057,40.4511475 C68.3713208,40.6819672 67.7690566,40.855082 67.2241509,41.1147541 C66.1941416,41.442984 65.2251165,41.9401716 64.3562264,42.5862295 C53.9552201,52.9154098 43.5828931,63.2926776 33.2392453,73.7180328 C30.5433962,76.4013115 30.3713208,76.4301639 27.8475472,73.7180328 C19.3967296,65.2354098 10.9650314,56.7239344 2.55245283,48.1836066 C0.54490566,46.135082 0.573584906,46.0196721 2.55245283,43.9711475 C6.65358491,39.7586885 10.8120755,35.6327869 14.8845283,31.3914754 C15.5189423,30.6822901 15.8933489,29.7762511 15.9456604,28.8236066 C16.0890566,22.8222951 16.2898113,16.7921311 16.1177358,10.7908197 C16.3410376,6.75624044 19.177398,3.35083959 23.0867925,2.42360656 C27.2511536,1.49818742 31.460913,3.78150458 32.9811321,7.79016393 C33.5921801,9.94786745 33.8915973,12.182767 33.8701887,14.4262295 C33.8701887,18.4367213 33.8701887,22.4472131 33.8701887,26.4288525 C33.9028427,27.1633632 34.1414736,27.8735765 34.5584906,28.477377 C35.8029333,29.9921481 35.7416471,32.1994454 34.4150943,33.6419672 C33.0118749,34.8187224 30.9563878,34.7568092 29.6256604,33.4977049 C28.9475891,32.8349027 28.5649922,31.9242499 28.5649922,30.9731148 C28.5649922,30.0219796 28.9475891,29.1113268 29.6256604,28.4485246 C29.980204,28.076403 30.2107529,27.602436 30.285283,27.092459 C30.285283,21.6681967 30.285283,16.2727869 30.0845283,10.8485246 C30.120315,8.62398213 28.619828,6.67115225 26.4709434,6.14557377 C24.3818706,5.42160469 22.066964,6.1319155 20.7350943,7.90557377 C20.1431323,8.69089257 19.7940334,9.63413498 19.7313208,10.6177049 C19.7313208,15.84 19.7313208,21.0622951 19.7313208,26.2845902 L20.0754717,26.6596721 Z" id="Path"></path>
                    </g>
                    <g id="Ojh2Wz.tif-2" transform="translate(80.301887, 0.000000)">
                        <path d="M51.1637736,25.4767213 L44.9690566,18.8406557 C44.9690566,21.5816393 44.1373585,24.1783607 45.6573585,26.775082 C47.2526718,29.8339218 46.3298532,33.6093829 43.5064151,35.575082 C40.8248459,37.5718646 37.1218288,37.4156389 34.6158491,35.2 C32.1587313,33.0404783 31.4525846,29.48842 32.8950943,26.5442623 C33.459466,25.3508081 33.7812306,24.0559763 33.8415094,22.7357377 C33.8415094,18.3213115 33.8415094,13.9068852 33.8415094,9.49245902 C33.8415094,8.91540984 33.8415094,8.33836066 33.8415094,7.32852459 C33.1229312,7.70576621 32.4411905,8.15012502 31.805283,8.6557377 C22.2455346,18.273224 12.6857862,27.8907104 3.12603774,37.5081967 C2.74641093,38.0545968 2.45596063,38.6584862 2.26566038,39.2970492 C2.83924528,39.4990164 3.44150943,39.7009836 3.98641509,39.9606557 C5.01563254,40.2908256 5.98435358,40.7878572 6.85433962,41.4321311 C17.3222642,51.8190164 27.7328302,62.2347541 38.1720755,72.6504918 C40.8679245,75.3337705 41.04,75.362623 43.5350943,72.6504918 C52.0050314,64.1678689 60.4367296,55.6563934 68.8301887,47.1160656 C70.8377358,45.067541 70.8090566,44.9521311 68.8301887,42.9036066 C64.7290566,38.6911475 60.5418868,34.5652459 56.4981132,30.3239344 C55.8636992,29.6147491 55.4892926,28.7087101 55.4369811,27.7560656 C55.2935849,21.7547541 55.0928302,15.7245902 55.2649057,9.72327869 C55.0539457,5.67777767 52.2149815,2.25749698 48.2958491,1.32721311 C44.1314879,0.401793973 39.9217285,2.68511114 38.4015094,6.69377049 C37.8163737,8.84578111 37.5363743,11.0701653 37.5698113,13.3009836 C37.5698113,17.3114754 37.5698113,21.3219672 37.5698113,25.3036066 C37.5403135,26.038709 37.3013922,26.7497868 36.8815094,27.3521311 C35.677442,28.8831066 35.7752166,31.0717308 37.1109434,32.4878689 C38.5185649,33.6517258 40.5644888,33.5901006 41.9003774,32.3436066 C42.5711959,31.676873 42.9487452,30.7676909 42.9487452,29.8190164 C42.9487452,28.8703419 42.5711959,27.9611598 41.9003774,27.2944262 C41.5442359,26.9234297 41.3134215,26.4489168 41.2407547,25.9383607 C41.2407547,20.5140984 41.2407547,15.0898361 41.4128302,9.69442623 C41.3797809,7.47698277 42.8819681,5.53393424 45.0264151,5.02032787 C47.1154879,4.29635879 49.4303945,5.0066696 50.7622642,6.78032787 C51.3572648,7.56396274 51.7067184,8.50816369 51.7660377,9.49245902 C51.7660377,14.7147541 51.7660377,19.9370492 51.7660377,25.1593443 L51.1637736,25.4767213 Z" id="Path"></path>
                    </g>
                    <path d="M99.1154717,82.1140984 L98.9433962,82.1140984 C98.9433962,79.0557377 89.1350943,76.6032787 77.0324528,76.6032787 C64.9298113,76.6032787 55.1215094,79.0845902 55.1215094,82.1140984 C55.1215094,82.1140984 53.0566038,93.4819672 67.109434,102.31082 C67.109434,102.31082 74.6233962,108.514098 74.6233962,113.678689 L79.5849057,113.678689 C79.5849057,108.514098 87.1275472,102.31082 87.1275472,102.31082 C101.151698,93.4819672 99.1154717,82.1140984 99.1154717,82.1140984 Z M77.0324528,83.0085246 C68.4286792,83.0085246 61.2875472,81.8544262 61.2875472,80.4695082 C61.2875472,79.0845902 68.3139623,77.9016393 77.0324528,77.9016393 C85.7509434,77.9016393 92.7773585,79.0268852 92.7773585,80.4406557 C92.7773585,81.8544262 85.7222642,83.0085246 77.0324528,83.0085246 Z" id="Shape"></path>
                    <path d="M47.9230189,113.101639 C47.9230189,113.101639 55.1215094,104.445902 64.0120755,107.937049 C72.9026415,111.428197 82.1660377,113.101639 90.0528302,108.629508 C97.9396226,104.157377 109.898868,110.360656 105.797736,111.716721 C87.3905351,119.600122 66.6819686,120.09567 47.9230189,113.101639 L47.9230189,113.101639 Z" id="Path"></path>
                    <path d="M55.8098113,42.1534426 C55.8098113,42.1534426 77.0324528,41.8072131 77.0324528,59.7245902 L77.0324528,81.4216393 C74.0649322,81.6101735 71.0860406,81.4941652 68.1418868,81.0754098 C72.1842694,74.857042 74.1068664,67.4847698 73.6196226,60.0708197 L55.8098113,42.1534426 Z" id="Path"></path>
                    <path d="M96.5343396,20.1962419 C96.5343396,20.1962419 75.3116981,19.8504918 75.3116981,37.7678689 L75.3116981,81.0465574 C78.279199,81.2367023 81.2582538,81.1206876 84.2022642,80.7003279 C77.5773585,50.0013115 77.2332075,50.0301639 78.7245283,37.9986885 L96.5343396,20.1962419 Z" id="Path"></path>
                </g>
            </g>
        </g>
    </g>
</svg>