<?xml version="1.0" encoding="UTF-8"?>
<svg width="145px" height="151px" viewBox="0 0 145 151" version="1.1" xmlns="http://www.w3.org/2000/svg" xmlns:xlink="http://www.w3.org/1999/xlink">
    <!-- Generator: sketchtool 57.1 (101010) - https://sketch.com -->
    <title>6F082F32-7ED6-47F0-BC32-5E71A15D6F35</title>
    <desc>Created with sketchtool.</desc>
    <g id="Page-1" stroke="none" stroke-width="1" fill="none" fill-rule="evenodd">
        <g id="4-Product-Details" transform="translate(-252.000000, -3967.000000)">
            <g id="step1-02" transform="translate(252.000000, 3965.000000)">
                <path d="M0,23.7288351 C0.128076195,21.0623144 1.78897408,18.7125488 4.25706977,17.7061193 L17.4022109,11.2223344 C18.8700951,10.2052807 20.5540243,9.54428363 22.3208523,9.29160732 C24.3750056,9.0762352 26.4398695,8.9800186 28.505109,9.0034391 L50.3657376,9.0034391 C51.5627746,8.97247229 52.7295445,9.38261724 53.6448318,10.156112 C54.5472488,10.9314925 55.0454036,12.0782914 54.9967391,13.2683287 L54.9967391,148.707391 C54.9967391,151.550651 53.4818359,152.972281 50.4520295,152.972281 L23.0111879,152.972281 C21.7526326,153.125215 20.5009235,152.638746 19.6745657,151.675524 C19.0588937,150.842963 18.7352818,149.829818 18.7541182,148.793842 L18.7541182,42.0275169 L5.49392112,48.6265691 C5.18494432,48.7552644 4.84882363,48.8047847 4.51594563,48.7706532 C4.30189953,48.7289351 4.08202568,48.8060323 3.94066593,48.972371 C2.81606523,49.031487 1.73648402,48.5231518 1.06426744,47.6179804 C0.384377652,46.6928681 0.0302789966,45.5678067 0.0575279698,44.4193131 L0,23.7288351 Z" id="Path" fill="#F58220" fill-rule="nonzero"></path>
                <g id="Group" transform="translate(44.000000, 0.000000)" fill="#FFFFFF">
                    <g id="zLMpRW" transform="translate(0.000000, 63.148148)" fill-rule="nonzero">
                        <path d="M26.8658333,43.2564815 C26.8658333,38.2333333 26.6941667,33.2101852 26.6083333,27.2398148 C29.9272222,31.2583333 33.8469444,33.3537037 35.1916667,38.2046296 C36.8958466,43.5837342 42.2924512,46.8787221 47.8377778,45.9259259 C53.338955,45.1496068 57.5430086,40.6084343 57.9088889,35.0472222 C58.2348624,29.6744779 54.9627387,24.7386843 49.8977778,22.962963 C47.7748884,22.1671076 45.8300831,20.9574261 44.1755556,19.4037037 C38.2816667,13.662963 32.7311111,7.92222222 26.2077778,1.49259259 C27.5474835,1.04441798 28.9272321,0.72720234 30.3277778,0.54537037 C52.7016667,0.54537037 75.0755556,0.54537037 97.4494444,0.54537037 C98.5438088,0.715730812 99.6053904,1.05459989 100.596667,1.55 C100.110278,2.55462963 99.5666667,3.53055556 99.1947222,4.59259259 C98.4631871,6.10252812 97.9800881,7.72130065 97.7641667,9.38611111 C97.5925,33.8990741 97.5638889,58.3833333 97.4494444,82.8962963 C97.4494444,89.2685185 97.4494444,89.3833333 91.0119444,89.412037 C71.1749074,89.412037 51.3283333,89.412037 31.4722222,89.412037 C26.9516667,89.412037 26.8658333,89.1824074 26.8086111,84.762037 C26.8086111,75.4046296 26.5797222,66.0185185 26.8086111,56.6611111 C26.9806681,53.9757024 25.9282036,51.3571435 23.9475,49.5425926 C17.2811111,42.9694444 10.815,36.2240741 4.29166667,29.45 C-0.485248699,24.5421844 -1.13260234,16.9292032 2.74666667,11.2805556 C6.52668196,5.37173841 14.0594752,3.14616371 20.4283333,6.05648148 C23.5927551,7.88678027 26.482609,10.157825 29.0116667,12.8018519 C33.6466667,17.2222222 38.11,21.987037 42.9166667,26.4935185 C43.9488387,27.4332306 45.2136335,28.0775878 46.5788889,28.3592593 C49.5635513,28.8955576 51.7965838,31.4084409 51.9863889,34.4444444 C51.7064997,37.4515577 49.2705031,39.7976826 46.2641667,39.9555556 C43.1038706,39.9555556 40.5419444,37.3853384 40.5419444,34.2148148 C40.5599459,33.2670354 40.290554,32.3361271 39.7694444,31.5453704 C33.3605556,25.1444444 26.9516667,18.7435185 20.3425,12.5722222 C17.7308735,10.0124506 13.714046,9.57391061 10.6147222,11.5101852 C7.23871754,13.3411336 5.40702155,17.131955 6.06555556,20.925 C6.40390939,22.5413299 7.19844724,24.0259458 8.35444444,25.2018519 C14.0766667,31.5740741 20.0277778,37.3148148 26.0647222,43.4 L26.8658333,43.2564815 Z" id="Path"></path>
                    </g>
                    <g>
                        <g id="eYPxVl.tif">
                            <path d="M25.75,39.6111111 C21.642532,38.6092442 18.0108778,36.2039866 15.4786111,32.8083333 C13.5432606,30.6850758 11.8184649,28.3779058 10.3286111,25.9194444 C8.23002635,21.9196866 5.3035466,18.4161189 1.74527778,15.6435185 L11.1583333,2.46851852 L14.5058333,4.53518519 C16.6965691,5.76621697 19.2300579,6.24026191 21.7158333,5.88425926 C24.5769444,5.65462963 27.4380556,5.48240741 30.2991667,5.53981481 C31.983129,5.37683655 33.6352465,6.07800693 34.6913891,7.4039052 C35.7475318,8.72980347 36.0648528,10.5010973 35.535,12.112963 C34.9636256,13.634233 35.6978293,15.335986 37.1944444,15.9592593 C39.5691667,17.4518519 41.8008333,19.2027778 44.0897222,20.8675926 C44.4044444,21.0972222 44.7191667,21.2981481 45.0052778,21.5564815 C46.0925,22.475 47.0652778,23.5083333 46.6933333,25.087037 C46.3386511,26.7096274 45.096307,27.9893768 43.4888889,28.387963 C42.9512574,28.5151491 42.4067345,28.6109886 41.8580556,28.675 C41.9539791,29.9861761 41.4743885,31.2739991 40.5450064,32.2008718 C39.6156244,33.1277445 38.329132,33.6012359 37.0227778,33.4972222 C36.7938889,33.4972222 36.4791667,33.8703704 36.3647222,34.1287037 C35.9558188,35.6124169 34.8069669,36.7758601 33.3319444,37.2 C32.7237724,37.3488993 32.0940034,37.3877797 31.4722222,37.3148148 C30.9046069,37.2305089 30.3308941,37.4223654 29.9272222,37.8314815 C29.1624697,38.4028006 28.3594648,38.9206887 27.5238889,39.3814815 L25.75,39.6111111 Z" id="Path"></path>
                        </g>
                        <polygon id="Rectangle" fill-rule="nonzero" transform="translate(52.333183, 23.071384) rotate(-54.390000) translate(-52.333183, -23.071384) " points="50.6189738 0.331910369 54.1169959 0.326562918 54.0473914 45.8108577 50.5493693 45.8162051"></polygon>
                        <ellipse id="Oval" fill-rule="nonzero" transform="translate(66.673136, 33.274427) rotate(-12.450000) translate(-66.673136, -33.274427) " cx="66.6731359" cy="33.2744272" rx="12.9914013" ry="13.0295308"></ellipse>
                    </g>
                    <ellipse id="Oval" fill-rule="nonzero" cx="71.3561111" cy="48.1361111" rx="1.31611111" ry="1.32037037"></ellipse>
                    <ellipse id="Oval" fill-rule="nonzero" cx="68.5236111" cy="51.2074074" rx="1.31611111" ry="1.32037037"></ellipse>
                    <ellipse id="Oval" fill-rule="nonzero" cx="64.8041667" cy="48.3657407" rx="1.31611111" ry="1.32037037"></ellipse>
                    <ellipse id="Oval" fill-rule="nonzero" cx="69.6108333" cy="55.1398148" rx="1.31611111" ry="1.32037037"></ellipse>
                    <ellipse id="Oval" fill-rule="nonzero" cx="65.4622222" cy="53.8481481" rx="1.31611111" ry="1.32037037"></ellipse>
                    <ellipse id="Oval" fill-rule="nonzero" cx="66.7783333" cy="60.6222222" rx="1.31611111" ry="1.32037037"></ellipse>
                    <ellipse id="Oval" fill-rule="nonzero" cx="75.5047222" cy="49.4564815" rx="1.31611111" ry="1.32037037"></ellipse>
                    <ellipse id="Oval" fill-rule="nonzero" cx="76.1627778" cy="53.6185185" rx="1.31611111" ry="1.32037037"></ellipse>
                    <ellipse id="Oval" fill-rule="nonzero" cx="77.9080556" cy="57.5509259" rx="1.31611111" ry="1.32037037"></ellipse>
                    <ellipse id="Oval" fill-rule="nonzero" cx="74.4175" cy="60.8518519" rx="1.31611111" ry="1.32037037"></ellipse>
                    <ellipse id="Oval" fill-rule="nonzero" cx="73.7594444" cy="56.4601852" rx="1.31611111" ry="1.32037037"></ellipse>
                    <ellipse id="Oval" fill-rule="nonzero" cx="72.4433333" cy="52.0972222" rx="1.31611111" ry="1.32037037"></ellipse>
                    <ellipse id="Oval" fill-rule="nonzero" cx="70.6980556" cy="59.1009259" rx="1.31611111" ry="1.32037037"></ellipse>
                </g>
            </g>
        </g>
    </g>
</svg>