<?xml version="1.0" encoding="UTF-8"?>
<svg width="179px" height="142px" viewBox="0 0 179 142" version="1.1" xmlns="http://www.w3.org/2000/svg" xmlns:xlink="http://www.w3.org/1999/xlink">
    <!-- Generator: sketchtool 57.1 (101010) - https://sketch.com -->
    <title>D7191A9E-E023-439E-BD97-2D0B55C4E91E</title>
    <desc>Created with sketchtool.</desc>
    <g id="Page-1" stroke="none" stroke-width="1" fill="none" fill-rule="evenodd">
        <g id="4-Product-Details" transform="translate(-254.000000, -5012.000000)" fill-rule="nonzero">
            <g id="step4-02" transform="translate(254.000000, 5012.000000)">
                <path d="M5.23874291,120.545113 C3.70917577,120.684699 2.206017,120.081491 1.20387743,118.925947 C0.391734353,117.888374 -0.0329988377,116.603432 0.00200260825,115.289926 C-0.00426225425,113.537227 0.568725341,111.830858 1.63311844,110.43243 L64.1878414,2.48806087 C64.6479517,1.57365498 65.4179998,0.849480509 66.3626625,0.44279915 C67.725552,0.0916381125 69.1342604,-0.0520318371 70.5406083,0.0167029575 L96.6098455,0.0167029575 C97.6620834,0.161622652 98.652924,0.594398412 99.4714522,1.26658512 C100.415455,1.91284781 100.990099,2.96920666 101.01672,4.1072264 L101.01672,87.7641121 L112.463147,87.7641121 C113.622883,87.7285048 114.758007,88.1007537 115.668146,88.8151494 C116.608611,89.6681616 117.095231,90.9073023 116.984485,92.1671061 L116.984485,116.056899 C116.95906,117.192808 116.486545,118.27367 115.668146,119.067979 C114.854043,119.971835 113.684384,120.479812 112.463147,120.459893 L101.01672,120.459893 L101.01672,137.759399 C101.01672,140.562165 99.4714522,141.963548 96.380917,141.963548 L70.3975279,141.963548 C69.2316021,142.126665 68.0562172,141.736519 67.2236356,140.910038 C66.3910539,140.083556 65.9980289,138.916782 66.16235,137.759399 L66.16235,120.545113 L5.23874291,120.545113 Z M67.5931534,88.0481763 L67.5931534,55.2103631 L48.1628437,88.0481763 L67.5931534,88.0481763 Z" id="Shape" fill="#F58220"></path>
                <g id="Group" transform="translate(10.000000, 24.000000)" fill="#FFFFFF">
                    <path d="M57.2881356,23.8857143 C53.6633722,24.0274448 50.4814186,26.3339389 49.2269157,29.7290292 C47.9724128,33.1241194 48.8925996,36.938697 51.5581339,39.3929506 C54.2236681,41.8472041 58.1092231,42.4574462 61.4018705,40.9389491 C64.6945179,39.4204521 66.7453386,36.0724831 66.5974576,32.4571429 C66.3958297,27.5278183 62.2303081,23.6924723 57.2881356,23.8857143 Z M62.1289831,29.3142857 C61.8165799,29.2078961 61.5325245,29.0320329 61.2983051,28.8 C59.8406287,27.1955551 57.4666455,26.8048412 55.5694915,27.8571429 C55.2407875,28.0201151 54.8765024,28.0986797 54.509661,28.0857143 C54.2695776,28.0976657 54.0406735,27.9836642 53.9059851,27.7850645 C53.7712967,27.5864648 53.7503894,27.3321164 53.8508475,27.1142857 C53.9850612,26.7007672 54.2717404,26.3535395 54.6528814,26.1428571 C57.327614,24.6194634 60.7058345,25.1671809 62.7591525,27.4571429 C62.8870461,27.8176543 62.9735311,28.1914723 63.0169492,28.5714286 C63.0169492,29.1714286 62.6445763,29.5428571 62.0430508,29.3142857 L62.1289831,29.3142857 Z" id="Shape"></path>
                    <path d="M128.038983,18.8 C122.570318,18.9888657 117.755012,22.4471124 115.840939,27.5603655 C113.926866,32.6736186 115.291493,38.4335162 119.297785,42.15123 C123.304078,45.8689438 129.161973,46.81132 134.136896,44.5384396 C139.111819,42.2655593 142.222687,37.2256471 142.017288,31.7714286 C141.737587,24.3441678 135.485916,18.5428128 128.038983,18.8 Z M135.314576,26.9714286 C134.851937,26.8081662 134.431297,26.5447132 134.082881,26.2 C131.865749,23.7153796 128.201876,23.1301689 125.317797,24.8 C124.827339,25.0372707 124.28734,25.1547898 123.742373,25.1428571 C123.376698,25.1608394 123.028883,24.9840718 122.828525,24.6784185 C122.628166,24.3727652 122.605311,23.9840626 122.768475,23.6571429 C122.970971,23.0446755 123.401669,22.5332392 123.971525,22.2285714 C128.002284,19.9382272 133.089854,20.7720929 136.173898,24.2285714 C136.500482,24.6944949 136.778801,25.192285 137.004576,25.7142857 C136.89,26.7428571 136.231186,27.2857143 135.314576,26.9714286 L135.314576,26.9714286 Z" id="Shape"></path>
                    <path d="M41.1328814,42.5714286 C39.6010573,45.2947002 40.5445257,48.7402043 43.2515342,50.308653 C45.9585428,51.8771016 49.4265145,50.9875989 51.039212,48.3111855 C52.6519095,45.6347722 51.8120486,42.1626937 49.1532203,40.5142857 C47.8249742,39.6908058 46.2169546,39.4447622 44.7023204,39.8332518 C43.1876862,40.2217415 41.8981205,41.210989 41.1328814,42.5714286 Z M45.8305085,41.8285714 C45.6609799,41.9555189 45.465313,42.0433458 45.2576271,42.0857143 C43.8248524,42.3024155 42.7453111,43.498864 42.679661,44.9428571 C42.6516261,45.1758124 42.5734584,45.3999749 42.4505085,45.6 C42.3663903,45.7318984 42.2205351,45.8117777 42.0638136,45.8117777 C41.907092,45.8117777 41.7612368,45.7318984 41.6771186,45.6 C41.5045069,45.3816191 41.4224851,45.1054976 41.4479661,44.8285714 C41.5461893,42.8252986 43.0417613,41.16644 45.0284746,40.8571429 C45.2758813,40.8283039 45.5258136,40.8283039 45.7732203,40.8571429 C46.1169492,41.2 46.1455932,41.5714286 45.8305085,41.8285714 Z" id="Shape"></path>
                    <path d="M75.9067797,24.4285714 C73.2042568,22.8499834 69.7317283,23.7286759 68.110431,26.4013682 C66.4891337,29.0740606 67.3200377,32.5500596 69.9759355,34.2055087 C72.6318332,35.8609579 76.1282568,35.0822279 77.8259322,32.4571429 C78.6727825,31.1476735 78.9467686,29.5500349 78.5844343,28.0342474 C78.2220999,26.51846 77.2548773,25.2160174 75.9067797,24.4285714 Z M76.5655932,29.1142857 C76.438323,28.9451871 76.3502729,28.7500163 76.3077966,28.5428571 C76.1048556,27.096774 74.9050067,25.9957123 73.4433898,25.9142857 C73.2056829,25.884872 72.979168,25.7964605 72.7845763,25.6571429 C72.6523425,25.573238 72.5722602,25.4277527 72.5722602,25.2714286 C72.5722602,25.1151045 72.6523425,24.9696191 72.7845763,24.8857143 C73.0108856,24.7063158 73.2994433,24.6240799 73.5866102,24.6571429 C75.5850032,24.812478 77.2057554,26.3340236 77.4822034,28.3142857 C77.5076816,28.5612527 77.5076816,28.8101759 77.4822034,29.0571429 C77.1671186,29.4 76.8233898,29.4571429 76.5655932,29.1142857 Z" id="Shape"></path>
                    <path d="M106.928305,27.8285714 C104.225782,26.2499834 100.753254,27.1286759 99.1319564,29.8013682 C97.5106591,32.4740606 98.3415632,35.9500596 100.997461,37.6055087 C103.653359,39.2609579 107.149782,38.4822279 108.847458,35.8571429 C109.694308,34.5476735 109.968294,32.9500349 109.60596,31.4342474 C109.243625,29.91846 108.276403,28.6160174 106.928305,27.8285714 Z M107.587119,32.5142857 C107.460658,32.3447116 107.372692,32.1497275 107.329322,31.9428571 C107.137126,30.4911788 105.931228,29.3845659 104.464915,29.3142857 C104.228073,29.2815181 104.00234,29.1934117 103.806102,29.0571429 C103.673868,28.973238 103.593786,28.8277527 103.593786,28.6714286 C103.593786,28.5151045 103.673868,28.3696191 103.806102,28.2857143 C104.033832,28.1090903 104.321232,28.0271842 104.608136,28.0571429 C106.628621,28.1866639 108.279831,29.7143376 108.561017,31.7142857 C108.59129,31.9609842 108.59129,32.2104444 108.561017,32.4571429 C108.188644,32.8 107.816271,32.8571429 107.587119,32.5142857 L107.587119,32.5142857 Z" id="Shape"></path>
                    <g id="_13rtgV" transform="translate(71.610169, 0.000000)">
                        <path d="M36.320678,18.6571429 C36.3287993,18.7377343 36.3022457,18.8179768 36.2476224,18.8779101 C36.192999,18.9378434 36.1154397,18.9718347 36.0342373,18.9714286 L33.4849153,19.3428571 L30.6205085,19.8 L28.2144068,20.3714286 C27.1089358,20.6506815 26.0482851,21.0834837 25.0635593,21.6571429 C23.9704811,22.3143061 23.0634825,23.2386721 22.4283051,24.3428571 C21.8609682,25.3224172 21.4456909,26.3820605 21.1966102,27.4857143 C20.9961017,28.4 20.7955932,29.2857143 20.6523729,30.3428571 C20.5091525,31.4 20.3945763,32.1428571 20.3086441,33.0285714 C20.2227119,33.9142857 20.1367797,34.7428571 20.0222034,35.6 C20.0339901,35.6841569 20.0033346,35.768688 19.9402989,35.8258479 C19.8772633,35.8830077 19.7899877,35.9054147 19.7071186,35.8857143 C19.5066102,35.8857143 19.3920339,35.8857143 19.3633898,35.6285714 C19.1915254,34.4285714 19.019661,33.2 18.8191525,32 C18.6186441,30.8 18.3894915,29.7428571 18.160339,28.6285714 C17.9416653,27.6250503 17.6151452,26.6479741 17.1864407,25.7142857 C16.5858156,24.3105125 15.5910644,23.1099158 14.3220339,22.2571429 C13.5778922,21.7580374 12.7682087,21.363837 11.9159322,21.0857143 C10.8321119,20.7422397 9.72033115,20.4936794 8.59322034,20.3428571 L5.27050847,20 L2.86440678,19.6285714 C2.78320435,19.6289775 2.70564503,19.5949863 2.65102168,19.535053 C2.59639833,19.4751196 2.56984474,19.3948771 2.5779661,19.3142857 C2.5779661,19.0857143 2.5779661,19 2.83576271,18.9714286 L5.70016949,18.5714286 L8.02033898,18.1714286 L10.7128814,17.5714286 C11.5336447,17.3580533 12.3303,17.0612619 13.090339,16.6857143 C14.2061744,16.175609 15.1870583,15.4124598 15.9547458,14.4571429 C16.5937059,13.53563 17.06852,12.5110861 17.3583051,11.4285714 C17.6761716,10.3520021 17.9154975,9.25389479 18.0744068,8.14285714 C18.0744068,7.37142857 18.3035593,6.62857143 18.3894915,5.85714286 C18.4754237,5.08571429 18.5613559,4.42857143 18.6472881,3.71428571 C18.7332203,3 18.6472881,2.91428571 18.6472881,2.51428571 C18.6472881,2.11428571 18.6472881,2.2 18.9910169,2.2 C19.3347458,2.2 19.2774576,2.2 19.3061017,2.48571429 C19.4588701,3.59047619 19.6211864,4.6952381 19.7930508,5.8 C19.7930508,6.51428571 20.0222034,7.25714286 20.1940678,7.97142857 C20.3659322,8.68571429 20.6237288,9.77142857 20.8528814,10.6571429 C21.1170781,11.611565 21.5122882,12.5249733 22.0272881,13.3714286 C22.5483129,14.2519207 23.251366,15.0116301 24.089661,15.6 C25.121998,16.3174 26.2772419,16.840299 27.4983051,17.1428571 C28.439164,17.4041492 29.395957,17.6045662 30.3627119,17.7428571 L33.6567797,18.1714286 L36.0342373,18.4285714 C36.1725196,18.4257898 36.293044,18.5219648 36.320678,18.6571429 Z" id="Path"></path>
                    </g>
                    <g id="_13rtgV-2" transform="translate(22.915254, 25.714286)">
                        <path d="M21.7981356,10.7428571 C21.7981356,10.7428571 21.7981356,10.9142857 21.6262712,10.9142857 L20.1654237,11.1428571 L18.5613559,11.4285714 L17.1864407,11.7428571 C16.5532738,11.9057592 15.9459209,12.1557772 15.3818644,12.4857143 C14.7519578,12.8621516 14.2292844,13.3933364 13.8637288,14.0285714 C13.5448505,14.5905424 13.3130735,15.197414 13.1762712,15.8285714 C13.1762712,16.3428571 12.9471186,16.8857143 12.8611864,17.4 C12.7752542,17.9142857 12.7179661,18.4285714 12.660678,18.9428571 L12.4888136,20.4285714 C12.499977,20.4766042 12.4855189,20.5269837 12.4505653,20.5618487 C12.4156116,20.5967137 12.365104,20.6111351 12.3169492,20.6 C12.3169492,20.6 12.1450847,20.6 12.1164407,20.4571429 C12.1164407,19.7714286 11.9159322,19.0571429 11.8013559,18.3714286 C11.6867797,17.6857143 11.4576271,17.1428571 11.4576271,16.4285714 C11.3392815,15.8887723 11.1665392,15.362287 10.9420339,14.8571429 C10.6199277,14.05364 10.0730773,13.3594136 9.36661017,12.8571429 C8.94286107,12.5724301 8.47965777,12.3510413 7.99169492,12.2 C7.33181725,11.9705218 6.65048155,11.8077988 5.9579661,11.7142857 L3.98152542,11.4285714 L2.5779661,11.4285714 C2.53238483,11.4285714 2.48867044,11.4105103 2.45643961,11.3783612 C2.42420879,11.3462121 2.40610169,11.3026085 2.40610169,11.2571429 C2.40610169,11.2571429 2.40610169,11.0857143 2.54932203,11.0571429 L4.15338983,10.8285714 L5.49966102,10.6 L7.04644068,10.2571429 C7.51979999,10.1287902 7.98010455,9.95661377 8.42135593,9.74285714 C9.04792778,9.44282886 9.59680364,9.0028864 10.0254237,8.45714286 C10.4151127,7.93276909 10.7062617,7.34226739 10.8847458,6.71428571 C11.0739955,6.09703809 11.2176011,5.4667758 11.3144068,4.82857143 C11.3144068,4.4 11.3144068,3.97142857 11.4862712,3.51428571 C11.6581356,3.05714286 11.4862712,2.68571429 11.6294915,2.28571429 L11.6294915,1.6 C11.6294915,1.6 11.6294915,1.42857143 11.83,1.42857143 C12.0305085,1.42857143 12.0018644,1.42857143 12.0018644,1.6 L12.2883051,3.48571429 C12.2883051,3.91428571 12.2883051,4.31428571 12.5174576,4.74285714 C12.7466102,5.17142857 12.7466102,5.77142857 12.8898305,6.28571429 C13.0456095,6.83850628 13.2769332,7.36727856 13.5772881,7.85714286 C13.8694715,8.36645034 14.2704182,8.80539786 14.7516949,9.14285714 C15.3272812,9.53573215 15.9669814,9.82576762 16.6422034,10 C17.178503,10.1491054 17.7238675,10.2636278 18.2749153,10.3428571 L20.1654237,10.6 L21.540339,10.6 C21.5926514,10.5698318 21.657004,10.5692828 21.7098261,10.598554 C21.7626482,10.6278252 21.7961784,10.6826157 21.7981356,10.7428571 Z" id="Path"></path>
                    </g>
                    <g id="IEC0iF" transform="translate(0.000000, 31.428571)">
                        <g id="Group">
                            <path d="M22.1418644,53.1142857 C18.59,59.2 18.3035593,59.3142857 11.5722034,57.8285714 C12.8006873,53.3798552 14.2733023,49.0018279 15.9833898,44.7142857 C17.0021758,42.6884006 18.7839124,41.1474599 20.9388136,40.4285714 C27.8420339,38.5428571 34.8598305,36.9714286 41.9349153,35.8 C47.4345763,34.8857143 53.0488136,34.7428571 58.5771186,34.1142857 C59.6656677,33.8117056 60.7068032,33.3597678 61.670678,32.7714286 C69.1080714,29.0556013 76.7599331,25.7831853 84.5859322,22.9714286 C95.5566102,19.6857143 106.727797,21.9142857 117.612542,24.6285714 C126.89322,26.9428571 136.059322,29.7428571 145.368644,31.9714286 C148.108282,32.3054096 150.878498,32.3054096 153.618136,31.9714286 C154.763898,34.8285714 155.537288,37.1714286 156.482542,39.4 C159.346949,45.4 157.284576,56.5428571 151.928136,60.3142857 C150.41,61.3428571 147.860678,60.8857143 145.311356,61.1428571 C148.175763,53.5142857 146.829492,47.3714286 140.642373,43.0857143 C136.301351,39.9655819 130.470896,39.8743557 126.033898,42.8571429 C117.154237,48.5714286 118.729661,56.4571429 122.023729,63.8 L54.4237288,63.8 C58.0042373,52.9428571 56.9157627,47.3142857 50.8718644,43.1428571 C45.6711912,39.9206586 39.0031979,40.2977819 34.2010169,44.0857143 C28.9018644,48.2857143 28.0711864,54.2857143 31.7949153,63.0857143 L9.62440678,63.0857143 L8.96559322,61.9714286 C10.2307303,61.0278596 11.5506576,60.15968 12.9184746,59.3714286 C13.52,59.0571429 14.4079661,59.3714286 15.1813559,59.3714286 C21.0247458,59.3142857 21.0247458,59.2857143 22.1418644,53.1142857 Z M70.6076271,34.6285714 L106.412712,36.2857143 L108.475085,27 C95.3459277,23.6834888 81.4172523,26.4894837 70.6076271,34.6285714 L70.6076271,34.6285714 Z M109.735424,36.4857143 L126.692712,34.5428571 L126.864576,33.1428571 L111.826441,27.4285714 L109.735424,36.4857143 Z M95.4133898,56.8285714 L111.110339,56.8285714 L114.633559,46.7428571 C111.224915,48.9714286 112.427966,54.6857143 107.873559,55.6 C104.035254,56.3428571 99.9677966,56.4 95.499322,56.8 L95.4133898,56.8285714 Z" id="Shape"></path>
                            <path d="M6.76,57.5428571 C2.37425097,54.2606694 0.25202059,48.7689904 1.2944639,43.3997321 C2.33690721,38.0304737 6.36105021,33.7260705 11.6581356,32.3142857 C14.8649652,31.6186494 17.7126571,29.7926327 19.6784746,27.1714286 C24.6911864,21 32.7115254,20.4 42.0781356,24.9142857 C46.2579837,20.9633121 52.0945538,19.2710612 57.7464407,20.3714286 C58.1761017,19.0571429 58.5198305,17.8571429 58.9208475,16.6857143 C60.6571143,11.8184318 64.6464365,8.08946636 69.6284332,6.67694201 C74.61043,5.26441766 79.9697028,6.34281569 84.0130508,9.57142857 C85.6216455,10.718838 87.6132918,11.2001267 89.57,10.9142857 C94.7966973,10.9042853 99.7932058,8.76835488 103.405085,5 C109.964576,-0.714285714 120.591525,2.14285714 124.458475,9.97142857 C125.06,11.1142857 125.489661,12.3142857 125.604237,12.5142857 C130.27322,14.0571429 134.197458,15.3714286 138.236271,16.6571429 C139.192613,16.8341052 140.178379,16.7652765 141.100678,16.4571429 C152.730169,13.2857143 162.583729,20.2571429 162.870169,31.7428571 C163.089615,33.2770345 163.815289,34.6945437 164.932542,35.7714286 C168.416936,39.0457386 169.68953,44.034126 168.197966,48.5714286 C166.896371,53.0288493 163.160648,56.3558581 158.573559,57.1428571 C160.105069,53.7355674 161.18358,50.143243 161.781695,46.4571429 C161.492589,42.6214459 160.712875,38.838377 159.461525,35.2 C159.261017,34.3714286 158.401695,33.4857143 158.573559,32.8 C159.604746,28.9714286 157.255932,28.7142857 154.420169,29.0285714 C145.826949,30 138.236271,25.9714286 130.187288,24.2285714 C121.193051,22.2571429 112.256102,20 103.118644,18.6571429 C90.9960267,17.0017905 78.6686451,19.4892121 68.1442373,25.7142857 C59.5510169,30.4857143 50.6140678,31.4285714 41.2761017,32.2571429 C35.0026339,32.9711121 28.7693666,34.0009981 22.6001695,35.3428571 C15.9310891,36.2071366 10.6523801,41.3907358 9.68169492,48.0285714 C8.87667788,51.2491712 7.90141681,54.4250375 6.76,57.5428571 Z" id="Path"></path>
                            <path d="M125.575593,44.9142857 L131.533559,42.5142857 C131.705424,45.3714286 131.848644,47.6285714 131.991864,49.9142857 L130.960678,50.6285714 L125.575593,44.9142857 Z" id="Path"></path>
                            <path d="M134.627119,42.5714286 L139.668475,44.3428571 C139.840339,44.8857143 140.040847,45.2571429 139.983559,45.3142857 C138.408136,46.9428571 136.804068,48.5142857 135.2,50.1142857 L134.627119,42.5714286 Z" id="Path"></path>
                            <path d="M55.1398305,56.2857143 L52.7910169,61.7714286 L47.0622034,57.2285714 C47.0622034,56.8 47.2054237,56.3714286 47.2913559,55.9428571 L55.1398305,56.2857143 Z" id="Path"></path>
                            <path d="M40.6745763,50.5428571 L35.7477966,44.8285714 L41.4766102,42.4285714 C41.6198305,45.2857143 41.7344068,47.6 41.8489831,49.8857143 L40.6745763,50.5428571 Z" id="Path"></path>
                            <polygon id="Path" points="33.2844068 47.2 39.0132203 52.3142857 38.4116949 53.4571429 31.2220339 53.1428571"></polygon>
                            <polygon id="Path" points="55.4835593 53.5142857 47.7210169 52.8857143 52.4472881 46.8285714"></polygon>
                            <polygon id="Path" points="128.468644 53.4571429 121.307627 53.1142857 123.284068 47.4 129.012881 52.3428571"></polygon>
                            <polygon id="Path" points="41.5338983 66.6285714 36.0055932 64.1428571 41.5338983 57.5428571"></polygon>
                            <path d="M142.704746,61.7142857 L136.975932,57.0857143 C139.553898,53.7714286 142.189153,57.4571429 144.996271,56.8571429 L142.704746,61.7142857 Z" id="Path"></path>
                            <path d="M137.262373,51.9714286 L142.847966,47.5428571 L145.48322,53.0857143 L137.491525,53.4285714 C137.491525,52.9428571 137.491525,52.4571429 137.262373,51.9714286 Z" id="Path"></path>
                            <polygon id="Path" points="131.991864 59.0285714 131.590847 66.5714286 126.033898 64.2571429 130.874746 58.5428571"></polygon>
                            <path d="M45.5440678,58.5428571 L50.1271186,64.0285714 L44.9138983,66.6 C44.6561017,63.7428571 44.4269492,61.2285714 44.1977966,58.8285714 L45.5440678,58.5428571 Z" id="Path"></path>
                            <path d="M44.770678,42.6285714 L49.7547458,44.5142857 C49.7547458,45.1428571 49.7547458,45.4571429 49.7547458,45.5714286 C48.1220339,47.0571429 46.4320339,48.4285714 44.770678,49.9714286 L44.770678,42.6285714 Z" id="Path"></path>
                            <path d="M121.307627,56.6 C122.515536,56.3337114 123.740694,56.1523133 124.974068,56.0571429 C126.222308,56.131126 127.465465,56.2742034 128.697797,56.4857143 C127.947741,57.5429539 127.134695,58.554299 126.263051,59.5142857 C125.367407,60.261512 124.409084,60.930637 123.398644,61.5142857 L121.307627,56.6 Z" id="Path"></path>
                            <polygon id="Path" points="135.028136 66.6 134.140169 58.9428571 135.429153 58.5142857 140.212712 64.2285714"></polygon>
                            <polygon id="Path" points="33.5135593 61.9428571 31.3366102 56.5428571 38.4689831 55.5428571 39.1850847 56.7428571"></polygon>
                        </g>
                    </g>
                    <polygon id="Path" points="11.83 88.4285714 10.6555932 92.4285714 8.96559322 93.4 10.3118644 94.9428571 31.7949153 94.9428571 26.8967797 79.2285714 21.0247458 79.5714286"></polygon>
                </g>
            </g>
        </g>
    </g>
</svg>