<?xml version="1.0" encoding="UTF-8"?>
<svg width="137px" height="148px" viewBox="0 0 137 148" version="1.1" xmlns="http://www.w3.org/2000/svg" xmlns:xlink="http://www.w3.org/1999/xlink">
    <!-- Generator: sketchtool 57.1 (101010) - https://sketch.com -->
    <title>39562982-83FD-4A15-B075-3C9A5C8534F5</title>
    <desc>Created with sketchtool.</desc>
    <g id="Page-1" stroke="none" stroke-width="1" fill="none" fill-rule="evenodd">
        <g id="4-Product-Details" transform="translate(-252.000000, -4412.000000)" fill-rule="nonzero">
            <g id="step2-02" transform="translate(252.000000, 4412.000000)">
                <path d="M50.2246406,114.253407 L93.3516918,114.253407 C94.4993993,114.209035 95.6239681,114.586173 96.5156725,115.314486 C97.4057586,116.15591 97.8672549,117.358883 97.769863,118.583758 L97.769863,141.067172 C97.7651414,142.314491 97.3091765,143.51741 96.4871681,144.451155 C95.7099742,145.441555 94.520333,146.013516 93.2661788,146 L4.90275586,146 C3.62835863,145.975778 2.41675447,145.438601 1.53924492,144.508511 C0.572663156,143.638849 0.0140683218,142.400379 0,141.095849 L0,126.756938 C-0.00182307906,125.845571 0.223588057,124.948299 0.655610695,124.147256 L58.9469655,54.173366 C60.3462905,52.6978528 61.4496067,50.9646457 62.1964592,49.0687134 C62.6551731,47.5346536 62.8762987,45.9386629 62.8520587,44.3368725 C62.8849783,42.3527068 62.4554393,40.3883731 61.5978682,38.6013078 C60.8164485,36.993142 59.7096287,35.5670082 58.3483746,34.4143455 C57.0143257,33.2944994 55.4879994,32.4295002 53.8446905,31.8620192 C52.2129897,31.292444 50.4980416,31.0016485 48.7709197,31.0016845 C46.9045469,30.9866512 45.0570265,31.3779703 43.355097,32.1487974 C41.6913963,32.9014295 40.183018,33.9617754 38.9084215,35.2746802 C37.634822,36.603685 36.6025561,38.1469493 35.8584582,39.8344542 C35.1100878,41.481755 34.7213003,43.2712843 34.718285,45.0824959 L34.718285,50.3878933 C34.6738565,51.5362559 34.2299629,52.6324445 33.4640945,53.4850982 C32.5944018,54.532966 31.2844953,55.1068812 29.9295576,55.0337007 L5.35882514,55.0337007 C4.11163094,55.1858968 2.87122105,54.7017744 2.05232286,53.7431986 C1.44220861,52.9146536 1.121518,51.9063958 1.1401843,50.8754163 L1.1401843,45.885475 C1.06468446,39.5043574 2.33746819,33.1799046 4.87425153,27.3309231 C7.25518423,21.8581592 10.706167,16.9232557 15.021793,12.8199443 C19.3637484,8.7401648 24.4439878,5.53717079 29.9865663,3.38494032 C35.7912255,1.11026154 41.9715217,-0.0379602755 48.2008331,0 C54.6202621,-0.0258717149 60.9987005,1.03074684 67.0706996,3.1268399 C72.8448683,5.08711945 78.2154668,8.09002536 82.9191071,11.9882874 C87.4751612,15.8035689 91.1929038,20.530304 93.8362654,25.8683541 C96.6364612,31.5420392 98.0625217,37.8018311 97.9978976,44.1361277 C98.015423,47.4375413 97.5936138,50.72646 96.7437071,53.9152656 C95.9343601,56.8884324 94.8264898,59.7710535 93.4372048,62.5186127 C92.089736,65.1741815 90.5161137,67.7073019 88.7339904,70.0895581 C86.9667219,72.4411397 85.1329434,74.6780099 83.2326547,76.8001689 L50.2246406,114.253407 Z" id="Path" fill="#F58220"></path>
                <g id="Group" transform="translate(35.000000, 5.000000)" fill="#FFFFFF">
                    <path d="M90.3252778,11.919 L92.5569444,8.845 C91.4639781,7.66204071 90.1763685,6.68075417 88.7516667,5.945 C85.6765002,4.41948638 82.3844096,3.39201444 78.9952778,2.9 C74.9783247,2.2228699 70.8946099,2.04756169 66.8355556,2.378 C61.9267713,2.62261928 57.1182044,3.87563264 52.7016667,6.061 C50.7168996,6.98673784 49.0163873,8.43979472 47.7805556,10.266 C46.1587309,12.6717734 46.2986228,15.87394 48.1238889,18.125 C49.8755404,20.2717954 52.1699085,21.8956734 54.7616667,22.823 C58.672127,24.3515278 62.7941017,25.2517061 66.9786111,25.491 C70.0149967,25.7632671 73.06917,25.7632671 76.1055556,25.491 L76.6205556,25.491 L76.0769444,28.391 L87.1780556,22.069 L74.9038889,18.531 L76.22,21.576 C74.7894444,21.576 73.3588889,21.808 72.1286111,21.837 C67.9275634,21.9893419 63.7266682,21.5303379 59.6541667,20.474 C57.1479219,19.904452 54.76991,18.8616135 52.6444444,17.4 C52.0310947,16.945472 51.490655,16.3976865 51.0422222,15.776 C50.2148767,14.652292 50.2991926,13.0895593 51.2425,12.064 C52.8050184,10.3636475 54.7769716,9.10443093 56.9647222,8.41 C61.8429223,6.69602126 67.0005367,5.94779798 72.1572222,6.206 C75.9523857,6.25360168 79.720643,6.85924756 83.3441667,8.004 C85.4031699,8.62672317 87.339489,9.60804215 89.0663889,10.904 C89.5813889,11.194 89.9247222,11.6 90.3252778,11.919 Z" id="Path"></path>
                    <path d="M85.8333333,49.677 L89.5813889,47.879 C89.73784,47.772926 89.8419885,47.6040236 89.8675,47.415 C90.2680556,44.283 90.6686111,41.18 91.0691667,38.048 L92.3566667,29 C92.7286111,26.1 93.1005556,23.2 93.4438889,20.3 C93.5443438,18.4359703 94.3793657,16.6909818 95.7613889,15.457 C96.5528757,14.7729232 97.2895411,14.0262449 97.9644444,13.224 C98.5877376,12.2050476 98.4174928,10.8822225 97.5571714,10.0594341 C96.69685,9.23664567 95.3840827,9.14115757 94.4166667,9.831 C92.5908785,11.654078 91.2180695,13.8903668 90.4111111,16.356 C90.0105556,18.125 89.8102778,19.952 89.5813889,21.75 C89.1808333,24.65 88.8088889,27.753 88.4083333,30.769 C88.0077778,33.785 87.7502778,35.96 87.4355556,38.512 C87.0540741,41.5473333 86.6725926,44.5826667 86.2911111,47.618 C86.0908333,48.227 86.0336111,48.865 85.8333333,49.677 Z" id="Path"></path>
                    <path d="M98.6511111,52.925 C76.2772222,52.925 53.9033333,52.925 31.5294444,52.925 C30.1300055,53.1001531 28.7503592,53.4109083 27.4094444,53.853 C33.7897222,60.32 39.4833333,66.265 45.3772222,71.949 C47.0317498,73.5187608 48.976555,74.7409293 51.0994444,75.545 C56.2184497,77.3533966 59.5031301,82.4187291 59.1105556,87.899 C58.7446753,93.5176181 54.5406217,98.1056673 49.0394444,98.89 C43.4123524,99.9207846 37.9152325,96.5178499 36.2502778,90.973 C35.02,86.072 31.1002778,83.955 27.6669444,79.895 C27.6669444,85.927 27.8386111,91.002 27.9244444,96.077 L27.1233333,96.077 C21.1436111,90.016 15.1352778,84.042 9.27,77.894 C8.11400279,76.7059555 7.31946494,75.2060146 6.98111111,73.573 C6.3225771,69.740801 8.15427309,65.9108485 11.5302778,64.061 C14.623224,62.0971593 18.6394374,62.5281855 21.2580556,65.105 C27.8672222,71.34 34.2761111,77.836 40.685,84.303 C41.2044647,85.1026899 41.4737052,86.0426792 41.4575,87 C41.4575,90.2032515 44.0194262,92.8 47.1797222,92.8 C50.2012344,92.6510201 52.6474532,90.2583331 52.9019444,87.203 C52.7792635,84.0485495 50.4826499,81.4176169 47.4086111,80.91 C46.0472141,80.6310878 44.7833647,79.9905738 43.7463889,79.054 C39.0255556,74.501 34.5622222,69.687 29.7841667,65.163 C27.255109,62.49168 24.3652551,60.1971922 21.2008333,58.348 C14.8517097,55.5746094 7.45538896,57.885115 3.74805556,63.8 C-0.131213447,69.5069563 0.51614019,77.1985231 5.29305556,82.157 C11.7877778,88.943 18.2825,95.758 24.9488889,102.457 C26.9295924,104.290282 27.982057,106.935871 27.81,109.649 C27.6383333,119.103 27.81,128.586 27.81,138.04 C27.81,142.506 27.81,142.709 32.445,142.738 C52.3011111,142.854 72.1476852,142.854 91.9847222,142.738 C98.3363889,142.738 98.4222222,142.738 98.4222222,136.155 C98.4222222,111.389 98.5652778,86.652 98.7369444,61.886 C98.9503741,60.2034667 99.4335916,58.5675833 100.1675,57.043 C100.539444,55.999 101.111667,54.984 101.569444,53.969 C100.651233,53.4806252 99.6683414,53.129007 98.6511111,52.925 L98.6511111,52.925 Z M88.5227778,59.073 C88.1222222,62.205 87.7788889,65.366 87.2638889,68.498 C86.6344444,72.442 85.8333333,76.357 85.1752778,80.301 C84.5485905,84.8092945 82.2202228,88.8951362 78.6805556,91.698 C76.9526069,93.2275617 74.909741,94.3470906 72.7008333,94.975 C71.6891463,95.3548539 70.5619019,95.2474633 69.6377643,94.683187 C68.7136266,94.1189106 68.0930212,93.1590681 67.9513889,92.075 C67.7786822,91.1971854 67.7209622,90.3001155 67.7797222,89.407 C67.9033075,87.5258523 68.318489,85.6761808 69.01,83.926 C69.996706,80.7682962 71.8650067,77.9680451 74.3888889,75.864 C76.0197222,74.588 77.7936111,73.515 79.5388889,72.384 C80.9088246,71.7264014 82.0327076,70.6380977 82.7433333,69.281 C83.2565872,68.0393457 83.64016,66.7466308 83.8877778,65.424 C84.2883333,63.104 84.5172222,60.755 84.8605556,58.406 C84.9180547,58.1219995 85.0959537,57.8780411 85.3469444,57.739 C86.4627778,57.333 87.6358333,57.014 88.9233333,56.608 C88.6944444,57.507 88.6944444,58.29 88.5227778,59.044 L88.5227778,59.073 Z" id="Shape"></path>
                </g>
            </g>
        </g>
    </g>
</svg>